<?xml version='1.0' encoding='UTF-8'?>
<svg xmlns:svg="http://www.w3.org/2000/svg" version="1.1" x="0px" y="0px" viewBox="0 0 499.606 474.095" style="enable-background:new 0 0 499.606 474.095;" xml:space="preserve" xmlns="http://www.w3.org/2000/svg"><g id="CODIGOS"><svg:path d="M429.521,260.088c0,0.184,0.046,0.269,0.085,0.338l-0.337-0.066v-0.766h-0.259v1.034l0.855,0.13l0.013-0.332      c-0.11-0.071-0.111-0.199-0.111-0.25c0-0.195,0.14-0.275,0.278-0.275c0.167,0,0.292,0.103,0.292,0.281      c0,0.165-0.086,0.247-0.212,0.262v0.372c0.313-0.02,0.457-0.319,0.457-0.613c0-0.555-0.345-0.684-0.558-0.684      C429.664,259.52,429.521,259.837,429.521,260.088z" />
				<svg:path d="M428.984,258.676c0,0.445,0.252,0.652,0.797,0.652c0.544,0,0.799-0.208,0.799-0.652c0-0.443-0.255-0.652-0.799-0.652      C429.236,258.024,428.984,258.233,428.984,258.676z M430.336,258.676c0,0.212-0.153,0.272-0.554,0.272      c-0.402,0-0.553-0.06-0.553-0.272c0-0.212,0.151-0.27,0.553-0.27C430.182,258.406,430.336,258.464,430.336,258.676z" />
				<svg:path d="M429.534,256.159c0,0.209,0.072,0.301,0.128,0.351l-0.002,0.006c-0.203-0.012-0.431-0.069-0.431-0.31      c0-0.138,0.062-0.206,0.149-0.217v-0.369c-0.163,0.035-0.21,0.073-0.293,0.176c-0.077,0.092-0.1,0.306-0.1,0.384      c0,0.652,0.519,0.699,0.815,0.699c0.386,0,0.781-0.111,0.781-0.68c0-0.364-0.227-0.615-0.567-0.615      C429.781,255.583,429.534,255.769,429.534,256.159z M430.336,256.213c0,0.178-0.121,0.296-0.29,0.296      c-0.195,0-0.267-0.143-0.267-0.285c0-0.117,0.064-0.27,0.261-0.27C430.25,255.954,430.336,256.078,430.336,256.213z" />
				<svg:path d="M429.979,254.527c-0.102-0.182-0.237-0.392-0.505-0.392c-0.315,0-0.49,0.286-0.49,0.647c0,0.168,0.044,0.615,0.55,0.615      v-0.361c-0.113-0.002-0.292-0.011-0.292-0.27c0-0.181,0.119-0.26,0.222-0.26c0.175,0,0.254,0.135,0.458,0.474      c0.246,0.409,0.436,0.424,0.617,0.438v-1.287h-0.271l0,0.818C430.196,254.906,430.125,254.778,429.979,254.527z" />
				<svg:path d="M429.534,252.328c0,0.21,0.072,0.301,0.128,0.352l-0.002,0.005c-0.203-0.013-0.431-0.069-0.431-0.309      c0-0.139,0.062-0.206,0.149-0.217v-0.369c-0.163,0.034-0.21,0.071-0.293,0.174c-0.077,0.095-0.1,0.309-0.1,0.385      c0,0.652,0.519,0.701,0.815,0.701c0.386,0,0.781-0.113,0.781-0.682c0-0.363-0.227-0.615-0.567-0.615      C429.781,251.753,429.534,251.938,429.534,252.328z M430.336,252.384c0,0.177-0.121,0.294-0.29,0.294      c-0.195,0-0.267-0.143-0.267-0.283c0-0.117,0.064-0.27,0.261-0.27C430.25,252.125,430.336,252.247,430.336,252.384z" />
				<svg:path d="M429.253,251.421v0.052l0.215,0v-0.447h1.071v-0.372h-1.555v0.305C429.099,250.967,429.253,251.064,429.253,251.421z" />
				<svg:path d="M429.979,248.341c-0.102-0.183-0.237-0.392-0.505-0.392c-0.315,0-0.49,0.286-0.49,0.646c0,0.167,0.044,0.615,0.55,0.615      v-0.36c-0.113-0.004-0.292-0.012-0.292-0.271c0-0.181,0.119-0.26,0.222-0.26c0.175,0,0.254,0.136,0.458,0.474      c0.246,0.409,0.436,0.424,0.617,0.438v-1.285l-0.271,0v0.816C430.196,248.721,430.125,248.59,429.979,248.341z" />
				<svg:path d="M429.979,246.867c-0.102-0.183-0.237-0.392-0.505-0.392c-0.315,0-0.49,0.285-0.49,0.647c0,0.167,0.044,0.615,0.55,0.615      v-0.361c-0.113-0.002-0.292-0.011-0.292-0.27c0-0.181,0.119-0.26,0.222-0.26c0.175,0,0.254,0.135,0.458,0.475      c0.246,0.408,0.436,0.422,0.617,0.437v-1.285h-0.271v0.816C430.196,247.246,430.125,247.116,429.979,246.867z" />
			<svg:path d="M423.664,261.668c-0.307,0-0.604-0.056-0.89-0.162v0.594c0.288,0.092,0.585,0.141,0.89,0.141     c0.449,0,0.884-0.107,1.3-0.305l0-0.618C424.55,261.544,424.114,261.668,423.664,261.668z" />
			<svg:path d="M422.773,244.733v0.594c0.287-0.106,0.584-0.162,0.89-0.162c0.45,0,0.887,0.124,1.3,0.35v-0.616     c-0.416-0.199-0.85-0.307-1.3-0.307C423.359,244.592,423.061,244.641,422.773,244.733z" />
			<svg:path d="M427.396,248.811l0-1.201c-0.58-1.18-1.332-2.084-2.19-2.58v0.634C426.104,246.267,426.869,247.38,427.396,248.811z" />
			<svg:path d="M420.339,246.869v0.987c0.579-1.161,1.335-2.02,2.19-2.427v-0.605C421.7,245.169,420.951,245.885,420.339,246.869z" />
			<svg:path d="M422.529,262.009v-0.605c-0.855-0.407-1.611-1.266-2.19-2.427v0.989C420.951,260.948,421.7,261.664,422.529,262.009z" />
			<svg:path d="M427.396,258.023c-0.527,1.431-1.292,2.545-2.19,3.147l0,0.636c0.857-0.499,1.61-1.402,2.19-2.582V258.023z" />
			<svg:path d="M420.117,258.494l0.018,0.041l-0.458,0.198l-0.018-0.041L420.117,258.494z" />
				<svg:path d="M420.032,258.295l0.016,0.039l-0.388,0.159l0.405-0.122l0.017,0.04l-0.372,0.196l0.388-0.158l0.016,0.039l-0.465,0.19      l-0.026-0.061l0.352-0.186h-0.002l-0.38,0.115l-0.026-0.061L420.032,258.295z" />
				<svg:path d="M420.012,258.232l0.015,0.041l-0.465,0.174l-0.035-0.089c-0.015-0.038,0.035-0.083,0.126-0.118      c0.042-0.015,0.152-0.046,0.172,0.008l0.018,0.047L420.012,258.232z M419.749,258.287c-0.011-0.032-0.065-0.012-0.085-0.004      c-0.045,0.017-0.059,0.035-0.05,0.061l0.014,0.032l0.135-0.051L419.749,258.287z" />
				<svg:path d="M419.489,258.263l-0.036-0.105c-0.017-0.054,0.072-0.098,0.112-0.111c0.052-0.019,0.101-0.023,0.124-0.009      c0.011-0.022,0.022-0.037,0.11-0.068c0.069-0.025,0.087-0.03,0.091-0.042l0.014-0.004l0.014,0.048      c-0.022,0.011-0.045,0.02-0.094,0.038c-0.064,0.022-0.088,0.033-0.079,0.065l0.015,0.045l0.184-0.067l0.015,0.041      L419.489,258.263z M419.665,258.096c-0.007-0.022-0.028-0.027-0.075-0.009c-0.026,0.007-0.061,0.025-0.052,0.052l0.018,0.052      l0.127-0.045L419.665,258.096z" />
				<svg:path d="M419.452,257.878l0.038,0.11l0.099-0.034l-0.033-0.1l0.083-0.029l0.035,0.101l0.121-0.041l-0.038-0.114l0.084-0.029      l0.052,0.156l-0.472,0.161l-0.05-0.152L419.452,257.878z" />
				<svg:path d="M419.682,257.752c0.027-0.01,0.076-0.032,0.065-0.068c-0.007-0.02-0.024-0.04-0.074-0.023      c-0.039,0.011-0.045,0.03-0.049,0.056l-0.006,0.026c-0.008,0.039-0.016,0.077-0.122,0.111c-0.053,0.016-0.151,0.033-0.171-0.032      c-0.018-0.063,0.073-0.111,0.132-0.129l0.012,0.04c-0.022,0.009-0.07,0.029-0.059,0.066c0.005,0.016,0.024,0.031,0.068,0.017      c0.038-0.011,0.042-0.026,0.044-0.038l0.014-0.058c0.007-0.034,0.026-0.068,0.113-0.095c0.143-0.046,0.174,0.013,0.181,0.031      c0.021,0.075-0.075,0.12-0.135,0.138L419.682,257.752z" />
				<svg:path d="M419.264,257.614c-0.009-0.027-0.004-0.107,0.223-0.174c0.226-0.068,0.274-0.004,0.282,0.022      c0.008,0.028,0.001,0.107-0.225,0.175C419.319,257.706,419.271,257.642,419.264,257.614z M419.684,257.488      c-0.007-0.023-0.05-0.046-0.185-0.005c-0.134,0.041-0.158,0.083-0.151,0.106c0.006,0.023,0.05,0.046,0.185,0.005      C419.667,257.554,419.69,257.512,419.684,257.488z" />
				<svg:path d="M419.242,257.492l-0.03-0.105c-0.017-0.054,0.075-0.091,0.115-0.104c0.054-0.014,0.102-0.016,0.124,0      c0.014-0.022,0.025-0.036,0.114-0.06c0.07-0.02,0.089-0.025,0.093-0.036l0.013-0.004l0.013,0.047      c-0.021,0.01-0.046,0.018-0.095,0.032c-0.065,0.019-0.089,0.027-0.081,0.06l0.015,0.043l0.187-0.053l0.014,0.042      L419.242,257.492z M419.426,257.34c-0.006-0.022-0.028-0.028-0.076-0.014c-0.026,0.007-0.061,0.021-0.055,0.048l0.017,0.053      l0.13-0.036L419.426,257.34z" />
				<svg:path d="M419.658,257.119l0.011,0.047l-0.499,0.055l-0.013-0.048l0.461-0.203l0.013,0.047l-0.095,0.04l0.018,0.075      L419.658,257.119z M419.47,257.142l-0.014-0.052l-0.184,0.077v0.001L419.47,257.142z" />
				<svg:path d="M419.256,256.925c-0.027,0.011-0.082,0.03-0.072,0.067c0.005,0.021,0.047,0.043,0.184,0.007      c0.089-0.021,0.163-0.056,0.154-0.092c-0.005-0.025-0.043-0.032-0.104-0.023l-0.011-0.043c0.108-0.018,0.189-0.007,0.203,0.045      c0.014,0.054-0.062,0.115-0.231,0.157c-0.171,0.044-0.269,0.024-0.282-0.029c-0.016-0.061,0.078-0.111,0.149-0.132      L419.256,256.925z" />
				<svg:path d="M419.052,256.803c-0.007-0.027,0.005-0.106,0.233-0.159c0.23-0.054,0.273,0.011,0.28,0.038      c0.005,0.027-0.007,0.107-0.235,0.159C419.1,256.895,419.057,256.83,419.052,256.803z M419.477,256.702      c-0.005-0.023-0.046-0.048-0.183-0.016c-0.136,0.032-0.163,0.073-0.158,0.096c0.006,0.024,0.047,0.048,0.184,0.017      C419.456,256.766,419.483,256.725,419.477,256.702z" />
				<svg:path d="M419.508,256.489l0.01,0.045l-0.185,0.041l-0.288,0.14l-0.011-0.053l0.203-0.09l-0.222,0.005l-0.009-0.051l0.32,0.005      L419.508,256.489z" />
				<svg:path d="M418.973,256.44c-0.005-0.028,0.007-0.107,0.236-0.154c0.229-0.048,0.273,0.021,0.279,0.05      c0.007,0.027-0.005,0.107-0.233,0.154C419.024,256.537,418.981,256.469,418.973,256.44z M419.402,256.354      c-0.006-0.025-0.046-0.052-0.183-0.025c-0.136,0.028-0.163,0.069-0.158,0.093c0.006,0.025,0.047,0.051,0.184,0.025      C419.381,256.419,419.407,256.377,419.402,256.354z" />
				<svg:path d="M419.448,256.187l0.008,0.047l-0.501,0.015l-0.009-0.052l0.474-0.166l0.009,0.048l-0.099,0.032l0.015,0.079      L419.448,256.187z M419.258,256.195l-0.01-0.054l-0.189,0.062l0.002,0.001L419.258,256.195z" />
				<svg:path d="M419.059,255.952c-0.028,0.009-0.082,0.025-0.076,0.063c0.004,0.02,0.042,0.045,0.182,0.023      c0.089-0.015,0.167-0.043,0.161-0.082c-0.005-0.024-0.041-0.037-0.101-0.031l-0.009-0.045c0.11-0.009,0.191,0.008,0.2,0.061      c0.01,0.057-0.072,0.113-0.243,0.142c-0.173,0.029-0.269,0-0.279-0.054c-0.013-0.063,0.085-0.108,0.159-0.122L419.059,255.952z" />
				<svg:path d="M419.381,255.81l0.005,0.047h-0.505l-0.007-0.051l0.483-0.152l0.008,0.048l-0.1,0.03l0.011,0.079L419.381,255.81z       M419.189,255.812l-0.009-0.054l-0.191,0.056l0,0L419.189,255.812z" />
				<svg:path d="M418.836,255.582l-0.005-0.042l0.496-0.068l0.006,0.045l-0.34,0.136l0,0l0.353-0.048l0.005,0.042l-0.495,0.068      l-0.007-0.047l0.332-0.133L418.836,255.582z" />
				<svg:path d="M419.165,255.435c0.027-0.005,0.079-0.017,0.074-0.057c-0.003-0.02-0.018-0.042-0.07-0.036      c-0.038,0.006-0.047,0.023-0.056,0.048l-0.01,0.025c-0.014,0.036-0.026,0.073-0.136,0.089c-0.054,0.006-0.153,0.007-0.164-0.062      c-0.007-0.065,0.089-0.096,0.149-0.105l0.005,0.043c-0.021,0.004-0.072,0.015-0.067,0.054c0.002,0.016,0.018,0.034,0.063,0.029      c0.039-0.005,0.045-0.021,0.049-0.03l0.022-0.056c0.014-0.031,0.036-0.063,0.126-0.074c0.149-0.021,0.171,0.043,0.175,0.061      c0.011,0.078-0.091,0.106-0.154,0.114L419.165,255.435z" />
				<svg:path d="M419.296,255.23l0.006,0.047l-0.504-0.015l-0.005-0.052l0.489-0.136l0.004,0.048l-0.1,0.027l0.009,0.079L419.296,255.23      z M419.106,255.227l-0.007-0.056l-0.192,0.052l0,0L419.106,255.227z" />
				<svg:path d="M418.78,255.117l-0.009-0.096c-0.009-0.071,0.132-0.101,0.227-0.111c0.106-0.012,0.261-0.01,0.268,0.06l0.01,0.094      L418.78,255.117z M419.184,255.028l-0.005-0.043c-0.004-0.035-0.089-0.04-0.171-0.03c-0.146,0.015-0.154,0.047-0.153,0.065      l0.005,0.043L419.184,255.028z" />
				<svg:path d="M418.831,254.749l0.013,0.114l0.103-0.009l-0.011-0.105l0.087-0.008l0.013,0.104l0.128-0.012l-0.013-0.117l0.087-0.009      l0.017,0.162l-0.495,0.047l-0.016-0.158L418.831,254.749z" />
				<svg:path d="M418.897,254.561c-0.03,0.005-0.086,0.016-0.083,0.053c0.002,0.021,0.037,0.05,0.177,0.039      c0.09-0.007,0.168-0.028,0.165-0.065c-0.002-0.025-0.036-0.04-0.097-0.041l-0.002-0.044c0.107,0,0.185,0.025,0.188,0.079      c0.005,0.056-0.081,0.104-0.253,0.117c-0.173,0.014-0.264-0.023-0.269-0.077c-0.004-0.063,0.095-0.098,0.168-0.106      L418.897,254.561z" />
				<svg:path d="M418.718,254.376l-0.003-0.046l0.5,0.042l0.005,0.043l-0.49,0.102l-0.005-0.048l0.373-0.069l0,0L418.718,254.376z" />
				<svg:path d="M419.212,254.257l0.002,0.045l-0.495,0.021l-0.001-0.043L419.212,254.257z" />
				<svg:path d="M419.201,254.028l0.002,0.043l-0.413,0.019l0,0l0.414,0.02l0.001,0.045l-0.411,0.057v0.001l0.413-0.019l0.003,0.04      l-0.496,0.023l-0.003-0.065l0.39-0.056v-0.002l-0.393-0.02l-0.001-0.064L419.201,254.028z" />
				<svg:path d="M419.198,253.945l0.002,0.044l-0.503,0.016l-0.004-0.097c-0.002-0.042,0.061-0.068,0.159-0.072      c0.046-0.001,0.161,0.007,0.163,0.064l0.004,0.05L419.198,253.945z M418.929,253.912c-0.002-0.033-0.058-0.032-0.08-0.032      c-0.048,0.002-0.069,0.014-0.069,0.043l0.002,0.035l0.148-0.005L418.929,253.912z" />
				<svg:path d="M418.693,253.817l-0.004-0.108c-0.002-0.057,0.096-0.069,0.14-0.069c0.056-0.002,0.103,0.009,0.121,0.031      c0.017-0.017,0.033-0.028,0.126-0.03c0.073-0.001,0.093-0.001,0.1-0.011h0.014l0.002,0.048c-0.025,0.004-0.05,0.005-0.102,0.007      c-0.068,0.002-0.095,0.002-0.093,0.037l0.001,0.047l0.197-0.004l0.001,0.045L418.693,253.817z M418.91,253.717      c0-0.023-0.019-0.034-0.069-0.034c-0.027,0.001-0.066,0.007-0.066,0.033l0.003,0.055l0.135-0.002L418.91,253.717z" />
				<svg:path d="M418.781,253.444v0.115l0.106-0.002v-0.105l0.089-0.001v0.104l0.131-0.002v-0.118l0.089-0.001v0.162l-0.503,0.008      v-0.157L418.781,253.444z" />
				<svg:path d="M419.036,253.386c0.028-0.001,0.082-0.007,0.082-0.046c0-0.02-0.013-0.043-0.066-0.043c-0.04,0-0.05,0.015-0.062,0.038      l-0.013,0.023c-0.019,0.033-0.037,0.068-0.148,0.068c-0.056,0-0.155-0.014-0.155-0.083c0-0.066,0.1-0.084,0.163-0.084v0.044      c-0.023,0-0.077,0.004-0.077,0.043c0,0.016,0.015,0.037,0.06,0.037c0.039,0,0.048-0.014,0.053-0.023l0.03-0.051      c0.017-0.029,0.045-0.057,0.136-0.057c0.151,0,0.163,0.066,0.163,0.085c0,0.078-0.106,0.091-0.168,0.091V253.386z" />
				<svg:path d="M418.675,253.139c0-0.028,0.029-0.102,0.266-0.098c0.236,0.003,0.264,0.078,0.264,0.107      c0,0.029-0.028,0.101-0.264,0.099C418.704,253.242,418.675,253.168,418.675,253.139z M419.115,253.146      c0-0.025-0.035-0.059-0.175-0.06c-0.141-0.003-0.177,0.032-0.177,0.055c0,0.025,0.036,0.058,0.177,0.061      C419.08,253.202,419.115,253.17,419.115,253.146z" />
				<svg:path d="M418.691,253.014l0.005-0.107c0.001-0.057,0.1-0.066,0.144-0.066c0.056,0.002,0.102,0.014,0.117,0.036      c0.02-0.018,0.036-0.027,0.131-0.026c0.072,0.001,0.09,0.001,0.099-0.008l0.014,0.001l-0.003,0.049      c-0.024,0.003-0.049,0.004-0.101,0.003c-0.068-0.002-0.095,0-0.097,0.034l-0.002,0.046l0.197,0.002l-0.001,0.044      L418.691,253.014z M418.916,252.922c0.001-0.023-0.018-0.034-0.067-0.036c-0.027,0-0.067,0.004-0.069,0.03l-0.001,0.056      l0.134,0.002L418.916,252.922z" />
				<svg:path d="M419.2,252.783l-0.002,0.048l-0.499-0.091l0.001-0.051l0.505-0.06l-0.001,0.048l-0.105,0.011l-0.002,0.079      L419.2,252.783z M419.009,252.75l0.004-0.054l-0.201,0.021v0.001L419.009,252.75z" />
				<svg:path d="M418.875,252.487c-0.029,0.002-0.085,0.007-0.087,0.043c-0.002,0.021,0.031,0.054,0.171,0.061      c0.089,0.004,0.17-0.008,0.172-0.046c0.001-0.024-0.032-0.042-0.091-0.05l0.002-0.045c0.107,0.014,0.18,0.047,0.179,0.101      c-0.003,0.057-0.092,0.094-0.263,0.086c-0.174-0.009-0.26-0.054-0.258-0.11c0.003-0.064,0.106-0.086,0.178-0.084      L418.875,252.487z" />
				<svg:path d="M418.712,252.301c0.001-0.029,0.035-0.101,0.267-0.086c0.233,0.014,0.256,0.089,0.255,0.118      c-0.003,0.028-0.036,0.101-0.267,0.087C418.732,252.405,418.709,252.329,418.712,252.301z M419.145,252.328      c0.003-0.024-0.03-0.059-0.168-0.069c-0.139-0.008-0.176,0.024-0.178,0.047c-0.002,0.025,0.031,0.059,0.169,0.069      C419.108,252.384,419.144,252.353,419.145,252.328z" />
				<svg:path d="M419.231,252.121l-0.003,0.045l-0.187-0.012l-0.314,0.054l0.004-0.052l0.219-0.031l-0.212-0.057l0.003-0.05l0.306,0.09      L419.231,252.121z" />
				<svg:path d="M418.73,251.935c0.004-0.028,0.036-0.101,0.269-0.083c0.232,0.018,0.255,0.094,0.253,0.122      c-0.002,0.029-0.036,0.1-0.268,0.083C418.752,252.04,418.73,251.963,418.73,251.935z M419.165,251.968      c0.002-0.022-0.031-0.06-0.169-0.07c-0.139-0.011-0.175,0.021-0.177,0.045c-0.003,0.023,0.03,0.06,0.168,0.071      C419.126,252.024,419.163,251.992,419.165,251.968z" />
				<svg:path d="M419.253,251.827l-0.003,0.047l-0.49-0.121l0.004-0.052l0.5-0.03l-0.004,0.049l-0.102,0.005l-0.005,0.078      L419.253,251.827z M419.066,251.783l0.004-0.055l-0.196,0.009l0,0L419.066,251.783z" />
				<svg:path d="M418.95,251.5c-0.03,0.001-0.087,0.001-0.091,0.039c-0.002,0.021,0.028,0.056,0.167,0.072      c0.09,0.009,0.172,0.002,0.175-0.035c0.003-0.026-0.028-0.046-0.088-0.058l0.006-0.043c0.106,0.02,0.177,0.058,0.172,0.111      c-0.005,0.057-0.099,0.088-0.27,0.069c-0.173-0.018-0.257-0.071-0.251-0.125c0.006-0.065,0.112-0.079,0.184-0.073L418.95,251.5z      " />
				<svg:path d="M419.29,251.446l-0.004,0.048l-0.488-0.129l0.005-0.052l0.504-0.021l-0.006,0.048l-0.103,0.002l-0.01,0.079      L419.29,251.446z M419.106,251.4l0.007-0.054l-0.2,0.005L419.106,251.4z" />
				<svg:path d="M418.833,251.093l0.005-0.042l0.496,0.061l-0.007,0.045l-0.364,0.043l0,0l0.353,0.043l-0.006,0.042l-0.497-0.061      l0.007-0.048l0.357-0.041L418.833,251.093z" />
				<svg:path d="M419.187,251.017c0.028,0.003,0.082,0.004,0.088-0.035c0.002-0.02-0.005-0.047-0.059-0.053      c-0.038-0.005-0.05,0.01-0.067,0.03l-0.015,0.022c-0.025,0.031-0.046,0.062-0.156,0.047c-0.054-0.008-0.149-0.034-0.14-0.104      c0.009-0.065,0.111-0.068,0.171-0.061l-0.005,0.044c-0.023-0.003-0.074-0.007-0.081,0.032c-0.001,0.017,0.01,0.039,0.055,0.046      c0.039,0.005,0.048-0.008,0.056-0.016l0.037-0.048c0.02-0.027,0.051-0.05,0.141-0.038c0.15,0.022,0.153,0.088,0.15,0.108      c-0.011,0.077-0.117,0.076-0.178,0.067L419.187,251.017z" />
				<svg:path d="M419.365,250.861l-0.006,0.048l-0.484-0.152l0.006-0.052l0.507,0.002l-0.007,0.047l-0.104-0.001l-0.011,0.078      L419.365,250.861z M419.182,250.805l0.008-0.055l-0.199-0.002l0,0L419.182,250.805z" />
				<svg:path d="M418.897,250.612l0.017-0.095c0.013-0.071,0.158-0.062,0.251-0.046c0.106,0.018,0.256,0.062,0.244,0.132l-0.016,0.094      L418.897,250.612z M419.316,250.638l0.005-0.044c0.007-0.036-0.076-0.062-0.157-0.077c-0.145-0.025-0.163,0.004-0.166,0.023      l-0.007,0.042L419.316,250.638z" />
				<svg:path d="M419.052,250.277l-0.019,0.113l0.101,0.019l0.019-0.104l0.086,0.016l-0.018,0.104l0.127,0.023l0.02-0.118l0.088,0.016      l-0.03,0.163l-0.489-0.093l0.029-0.156L419.052,250.277z" />
				<svg:path d="M419.161,250.127c-0.03-0.003-0.087-0.007-0.095,0.029c-0.004,0.021,0.022,0.06,0.16,0.087      c0.088,0.018,0.169,0.019,0.177-0.019c0.005-0.025-0.023-0.047-0.082-0.065l0.01-0.045c0.105,0.031,0.173,0.076,0.161,0.129      c-0.013,0.057-0.11,0.08-0.278,0.046c-0.17-0.035-0.247-0.097-0.237-0.151c0.014-0.063,0.121-0.069,0.193-0.057L419.161,250.127      z" />
				<svg:path d="M419.036,249.892l0.011-0.045l0.471,0.179l-0.007,0.042l-0.504-0.036l0.011-0.047l0.378,0.035v-0.001L419.036,249.892z" />
				<svg:path d="M419.543,249.912l-0.01,0.041l-0.487-0.114l0.009-0.043L419.543,249.912z" />
				<svg:path d="M419.602,249.683l-0.011,0.039l-0.407-0.102l0.398,0.141l-0.011,0.042l-0.417-0.065v0.001l0.407,0.102l-0.011,0.04      l-0.487-0.121l0.015-0.063l0.394,0.059v-0.001l-0.374-0.131l0.016-0.063L419.602,249.683z" />
				<svg:path d="M419.618,249.604l-0.011,0.043l-0.479-0.13l0.025-0.095c0.009-0.039,0.076-0.047,0.169-0.021      c0.044,0.01,0.151,0.052,0.136,0.107l-0.012,0.049L419.618,249.604z M419.373,249.496c0.007-0.033-0.047-0.046-0.067-0.052      c-0.047-0.014-0.069-0.007-0.076,0.019l-0.01,0.034l0.142,0.039L419.373,249.496z" />
				<svg:path d="M419.174,249.335l0.029-0.105c0.016-0.054,0.114-0.035,0.155-0.023c0.053,0.016,0.095,0.041,0.106,0.066      c0.022-0.012,0.039-0.016,0.129,0.011c0.07,0.021,0.087,0.026,0.098,0.019l0.014,0.004l-0.014,0.047      c-0.023-0.004-0.049-0.008-0.098-0.024c-0.065-0.02-0.091-0.026-0.1,0.005l-0.015,0.045l0.188,0.057l-0.012,0.042      L419.174,249.335z M419.412,249.306c0.006-0.022-0.008-0.039-0.056-0.053c-0.025-0.008-0.064-0.015-0.071,0.011l-0.016,0.053      l0.127,0.039L419.412,249.306z" />
				<svg:path d="M419.377,248.993l-0.037,0.11l0.1,0.031l0.034-0.099l0.084,0.026l-0.034,0.101l0.122,0.038l0.038-0.114l0.085,0.027      l-0.053,0.156l-0.473-0.153l0.052-0.151L419.377,248.993z" />
				<svg:path d="M419.635,249.019c0.027,0.008,0.079,0.021,0.091-0.018c0.007-0.02,0.004-0.045-0.047-0.063      c-0.037-0.014-0.052-0.002-0.07,0.015l-0.021,0.017c-0.028,0.028-0.056,0.053-0.16,0.017c-0.053-0.02-0.141-0.064-0.119-0.131      c0.021-0.064,0.121-0.047,0.18-0.026l-0.015,0.041c-0.02-0.007-0.072-0.02-0.085,0.016c-0.005,0.016,0.002,0.041,0.046,0.057      c0.036,0.013,0.048,0.002,0.056-0.005l0.046-0.04c0.025-0.023,0.06-0.039,0.144-0.009c0.143,0.05,0.134,0.118,0.128,0.135      c-0.026,0.077-0.13,0.053-0.188,0.033L419.635,249.019z" />
				<svg:path d="M419.386,248.662c0.01-0.027,0.063-0.085,0.282,0.001c0.217,0.086,0.217,0.164,0.207,0.191      c-0.01,0.026-0.064,0.084-0.281-0.001C419.376,248.768,419.376,248.687,419.386,248.662z M419.793,248.822      c0.009-0.023-0.011-0.067-0.141-0.119c-0.13-0.05-0.175-0.033-0.184-0.009c-0.007,0.022,0.013,0.067,0.142,0.117      C419.739,248.863,419.784,248.844,419.793,248.822z" />
				<svg:path d="M419.451,248.534l0.042-0.101c0.022-0.053,0.117-0.021,0.156-0.005c0.05,0.023,0.089,0.053,0.095,0.08      c0.023-0.009,0.042-0.012,0.126,0.026c0.068,0.031,0.085,0.038,0.096,0.033l0.012,0.005l-0.019,0.046      c-0.023-0.006-0.047-0.017-0.095-0.038c-0.061-0.027-0.087-0.036-0.099-0.005l-0.019,0.042l0.18,0.08l-0.017,0.041      L419.451,248.534z M419.69,248.536c0.008-0.021-0.005-0.039-0.049-0.06c-0.025-0.011-0.063-0.023-0.072,0.001l-0.021,0.052      l0.121,0.056L419.69,248.536z" />
				<svg:path d="M420.007,248.523l-0.023,0.042l-0.406-0.296l0.026-0.047l0.477,0.162l-0.023,0.044l-0.099-0.036l-0.037,0.07      L420.007,248.523z M419.851,248.413l0.026-0.049l-0.187-0.067v0.002L419.851,248.413z" />
			<svg:path d="M428.148,257.329l-0.012,0.045l-0.45-0.122l0.013-0.045L428.148,257.329z" />
					<svg:path d="M428.21,257.087l-0.009,0.041l-0.377-0.096v0.002l0.366,0.134l-0.011,0.044l-0.386-0.056l0,0l0.377,0.095l-0.011,0.042       l-0.45-0.115l0.017-0.065l0.364,0.052v-0.002l-0.345-0.127l0.016-0.064L428.21,257.087z" />
					<svg:path d="M428.227,257.006l-0.009,0.045l-0.449-0.099l0.022-0.098c0.007-0.04,0.068-0.054,0.157-0.033       c0.041,0.008,0.142,0.042,0.129,0.099l-0.011,0.052L428.227,257.006z M427.997,256.913c0.006-0.034-0.043-0.045-0.063-0.049       c-0.044-0.01-0.066-0.003-0.07,0.026l-0.008,0.036l0.133,0.028L427.997,256.913z" />
					<svg:path d="M427.805,256.769l0.023-0.109c0.012-0.056,0.103-0.049,0.143-0.041c0.05,0.01,0.091,0.03,0.102,0.055       c0.02-0.014,0.036-0.02,0.122-0.005c0.067,0.014,0.082,0.018,0.092,0.01l0.012,0.002l-0.009,0.05       c-0.023-0.002-0.047-0.005-0.094-0.014c-0.062-0.012-0.087-0.016-0.093,0.018l-0.012,0.047l0.18,0.036l-0.009,0.043       L427.805,256.769z M428.026,256.713c0.005-0.023-0.009-0.038-0.056-0.048c-0.023-0.004-0.059-0.007-0.067,0.019l-0.01,0.056       l0.121,0.025L428.026,256.713z" />
					<svg:path d="M427.958,256.409l-0.02,0.113l0.097,0.019l0.016-0.104l0.082,0.016l-0.019,0.104l0.118,0.025l0.022-0.119l0.08,0.017       l-0.028,0.161l-0.457-0.092l0.027-0.156L427.958,256.409z" />
					<svg:path d="M428.207,256.395c0.026,0.004,0.076,0.006,0.083-0.033c0.004-0.021-0.003-0.047-0.052-0.055       c-0.035-0.007-0.047,0.007-0.063,0.028l-0.016,0.022c-0.023,0.031-0.046,0.061-0.146,0.042       c-0.052-0.009-0.14-0.038-0.127-0.107c0.012-0.065,0.108-0.067,0.164-0.056l-0.009,0.042c-0.02-0.003-0.069-0.009-0.076,0.031       c-0.002,0.018,0.007,0.039,0.048,0.048c0.037,0.006,0.046-0.005,0.051-0.014l0.036-0.048c0.02-0.026,0.052-0.048,0.133-0.033       c0.138,0.026,0.139,0.094,0.134,0.113c-0.014,0.076-0.112,0.073-0.168,0.062L428.207,256.395z" />
					<svg:path d="M427.924,256.094c0.005-0.028,0.045-0.098,0.259-0.063c0.215,0.037,0.227,0.115,0.223,0.143       c-0.005,0.028-0.045,0.099-0.259,0.062C427.931,256.201,427.918,256.122,427.924,256.094z M428.324,256.16       c0.004-0.023-0.022-0.062-0.149-0.084c-0.129-0.021-0.166,0.007-0.171,0.031c-0.004,0.025,0.022,0.064,0.15,0.084       C428.282,256.213,428.32,256.184,428.324,256.16z" />
					<svg:path d="M427.956,255.967l0.016-0.111c0.008-0.06,0.099-0.057,0.138-0.05c0.051,0.006,0.091,0.026,0.104,0.05       c0.018-0.016,0.035-0.023,0.121-0.011c0.067,0.009,0.083,0.012,0.092,0.005l0.012,0.001l-0.007,0.052       c-0.022,0-0.045-0.002-0.093-0.009c-0.062-0.01-0.087-0.011-0.091,0.023l-0.005,0.047l0.177,0.027l-0.005,0.045       L427.956,255.967z M428.171,255.898c0.004-0.025-0.013-0.038-0.058-0.045c-0.025-0.004-0.06-0.004-0.064,0.023l-0.009,0.057       l0.123,0.018L428.171,255.898z" />
					<svg:path d="M428.448,255.799l-0.005,0.049l-0.447-0.14l0.007-0.053l0.467-0.018l-0.006,0.051l-0.096,0.001l-0.011,0.082       L428.448,255.799z M428.279,255.749l0.007-0.057l-0.183,0.004l0,0L428.279,255.749z" />
					<svg:path d="M428.187,255.43c-0.027,0-0.08,0-0.086,0.039c-0.003,0.022,0.024,0.059,0.152,0.076       c0.084,0.011,0.16,0.005,0.165-0.034c0.003-0.025-0.025-0.047-0.08-0.059l0.006-0.047c0.099,0.022,0.163,0.063,0.155,0.119       c-0.008,0.058-0.095,0.09-0.254,0.069c-0.16-0.022-0.236-0.078-0.226-0.135c0.009-0.065,0.107-0.08,0.174-0.074L428.187,255.43       z" />
					<svg:path d="M428.041,255.258c0.004-0.028,0.037-0.101,0.251-0.078c0.216,0.025,0.233,0.105,0.23,0.135       c-0.003,0.029-0.037,0.104-0.251,0.078C428.056,255.368,428.037,255.288,428.041,255.258z M428.441,255.306       c0.003-0.027-0.025-0.064-0.153-0.079c-0.128-0.014-0.163,0.016-0.166,0.041c-0.002,0.026,0.027,0.063,0.154,0.079       C428.403,255.362,428.438,255.331,428.441,255.306z" />
					<svg:path d="M428.532,255.105l-0.005,0.047l-0.174-0.018l-0.298,0.049l0.005-0.056l0.207-0.026l-0.197-0.063l0.005-0.053       l0.282,0.102L428.532,255.105z" />
					<svg:path d="M428.071,254.9c0.004-0.031,0.038-0.105,0.256-0.088c0.218,0.018,0.238,0.098,0.235,0.127       c-0.004,0.029-0.037,0.105-0.257,0.087C428.087,255.006,428.069,254.928,428.071,254.9z M428.479,254.932       c0.003-0.025-0.026-0.063-0.156-0.073c-0.13-0.011-0.166,0.021-0.169,0.047c-0.003,0.025,0.026,0.063,0.156,0.073       C428.441,254.991,428.476,254.958,428.479,254.932z" />
					<svg:path d="M428.559,254.798l-0.005,0.049l-0.459-0.117l0.004-0.054l0.469-0.039l-0.003,0.05l-0.098,0.007l-0.006,0.081       L428.559,254.798z M428.385,254.756l0.004-0.058l-0.185,0.012v0.001L428.385,254.756z" />
					<svg:path d="M428.269,254.464c-0.027,0.001-0.081,0.005-0.083,0.043c-0.002,0.023,0.027,0.057,0.158,0.065       c0.083,0.005,0.16-0.005,0.162-0.043c0.004-0.026-0.027-0.047-0.084-0.056l0.005-0.047c0.1,0.016,0.169,0.053,0.163,0.108       c-0.004,0.059-0.089,0.096-0.251,0.085c-0.162-0.011-0.242-0.06-0.237-0.118c0.005-0.065,0.102-0.086,0.171-0.084       L428.269,254.464z" />
					<svg:path d="M428.588,254.383l-0.004,0.049l-0.459-0.101l0.004-0.053l0.47-0.054l-0.004,0.05l-0.097,0.008l-0.005,0.083       L428.588,254.383z M428.413,254.348l0.005-0.056l-0.186,0.018l0,0L428.413,254.348z" />
					<svg:path d="M428.137,254.049l0.001-0.043l0.465,0.015l-0.002,0.047l-0.333,0.08l0,0l0.331,0.011l-0.004,0.043l-0.464-0.015       l0.001-0.049l0.327-0.078l0,0L428.137,254.049z" />
					<svg:path d="M428.463,253.953c0.025,0,0.075-0.004,0.077-0.045c0-0.022-0.009-0.047-0.059-0.047       c-0.036-0.001-0.047,0.015-0.058,0.038l-0.012,0.023c-0.019,0.035-0.036,0.07-0.141,0.065       c-0.051-0.001-0.142-0.017-0.139-0.089c0.002-0.068,0.096-0.083,0.153-0.081l-0.001,0.045c-0.02,0-0.07,0.003-0.072,0.043       c0,0.018,0.012,0.038,0.054,0.04c0.037,0.001,0.046-0.012,0.051-0.022l0.028-0.053c0.017-0.029,0.044-0.055,0.127-0.053       c0.141,0.004,0.151,0.072,0.151,0.092c-0.004,0.08-0.102,0.091-0.16,0.088L428.463,253.953z" />
					<svg:path d="M428.61,253.761v0.049l-0.465-0.087v-0.053l0.465-0.069v0.05l-0.096,0.012v0.082L428.61,253.761z M428.433,253.732       v-0.058l-0.185,0.025v0.001L428.433,253.732z" />
					<svg:path d="M428.148,253.584v-0.098c0-0.073,0.133-0.089,0.222-0.089c0.099,0,0.243,0.019,0.243,0.092v0.095H428.148z        M428.533,253.54v-0.045c0-0.038-0.079-0.05-0.155-0.05c-0.138,0-0.149,0.032-0.149,0.05v0.045H428.533z" />
					<svg:path d="M428.231,253.2v0.117h0.097v-0.107h0.083v0.107h0.121v-0.122h0.081v0.169l-0.465,0V253.2H428.231z" />
					<svg:path d="M428.294,253.041c-0.026,0.005-0.079,0.012-0.079,0.05c0.001,0.023,0.032,0.055,0.164,0.052       c0.084-0.001,0.16-0.018,0.158-0.057c-0.002-0.025-0.034-0.043-0.089-0.047l-0.002-0.046c0.1,0.007,0.173,0.038,0.175,0.093       c0.001,0.059-0.08,0.103-0.242,0.106c-0.162,0.002-0.246-0.041-0.248-0.098c-0.001-0.067,0.092-0.095,0.161-0.098       L428.294,253.041z" />
					<svg:path d="M428.137,252.834l-0.001-0.047l0.468,0.059l0.001,0.043l-0.462,0.091l-0.002-0.05l0.35-0.058v-0.002L428.137,252.834z" />
					<svg:path d="M428.599,252.711l0.002,0.046l-0.465,0.017l-0.002-0.046L428.599,252.711z" />
					<svg:path d="M428.589,252.469l0.002,0.042l-0.387,0.02v0.001l0.391,0.021v0.045l-0.386,0.059v0.001l0.388-0.019l0.002,0.042       l-0.465,0.023l-0.003-0.068l0.365-0.057v-0.002l-0.368-0.02l-0.003-0.068L428.589,252.469z" />
					<svg:path d="M428.582,252.405l0.004,0.046l-0.465,0.031l-0.007-0.102c-0.004-0.043,0.052-0.072,0.144-0.077       c0.041-0.003,0.149,0.001,0.153,0.059l0.005,0.053L428.582,252.405z M428.332,252.378c-0.003-0.035-0.055-0.031-0.075-0.03       c-0.046,0.003-0.064,0.017-0.062,0.046l0.003,0.037l0.137-0.01L428.332,252.378z" />
					<svg:path d="M428.109,252.289l-0.008-0.111c-0.005-0.06,0.087-0.078,0.126-0.08c0.052-0.005,0.097,0.004,0.113,0.024       c0.016-0.019,0.03-0.03,0.117-0.038c0.068-0.005,0.084-0.007,0.091-0.018h0.012l0.005,0.05       c-0.022,0.005-0.047,0.01-0.095,0.014c-0.063,0.004-0.087,0.008-0.085,0.042l0.003,0.049l0.182-0.015l0.005,0.045       L428.109,252.289z M428.306,252.172c-0.002-0.023-0.02-0.034-0.065-0.03c-0.027,0.001-0.061,0.011-0.06,0.037l0.005,0.058       l0.124-0.011L428.306,252.172z" />
					<svg:path d="M428.157,251.9l0.013,0.117l0.098-0.007l-0.011-0.108l0.081-0.007l0.011,0.108l0.121-0.011l-0.012-0.122l0.082-0.007       l0.017,0.169l-0.465,0.038l-0.016-0.162L428.157,251.9z" />
					<svg:path d="M428.393,251.824c0.026-0.004,0.075-0.015,0.07-0.054c-0.003-0.021-0.015-0.046-0.065-0.041       c-0.037,0.005-0.045,0.021-0.053,0.046l-0.009,0.025c-0.014,0.037-0.027,0.074-0.13,0.083       c-0.053,0.005-0.145,0.002-0.152-0.071c-0.007-0.068,0.084-0.095,0.141-0.1l0.005,0.045c-0.02,0.003-0.069,0.011-0.065,0.051       c0.001,0.018,0.017,0.037,0.059,0.032c0.037-0.002,0.042-0.017,0.047-0.027l0.021-0.057c0.014-0.031,0.035-0.063,0.121-0.071       c0.139-0.013,0.158,0.053,0.162,0.072c0.007,0.082-0.089,0.105-0.147,0.111L428.393,251.824z" />
					<svg:path d="M428.041,251.602c-0.004-0.028,0.016-0.108,0.23-0.134c0.215-0.024,0.248,0.049,0.251,0.079       c0.003,0.028-0.015,0.109-0.23,0.134C428.078,251.706,428.044,251.633,428.041,251.602z M428.441,251.557       c-0.003-0.027-0.037-0.058-0.165-0.043c-0.128,0.015-0.156,0.054-0.154,0.079c0.004,0.024,0.038,0.057,0.166,0.042       C428.416,251.62,428.443,251.581,428.441,251.557z" />
					<svg:path d="M428.037,251.479l-0.017-0.113c-0.007-0.058,0.08-0.081,0.121-0.086c0.05-0.007,0.096,0,0.113,0.02       c0.014-0.02,0.027-0.033,0.113-0.043c0.066-0.01,0.082-0.011,0.089-0.022l0.011-0.003l0.008,0.052       c-0.023,0.005-0.045,0.011-0.093,0.018c-0.062,0.009-0.086,0.014-0.081,0.047l0.007,0.048l0.179-0.024l0.006,0.046       L428.037,251.479z M428.225,251.353c-0.005-0.025-0.024-0.034-0.069-0.028c-0.025,0.004-0.058,0.013-0.056,0.041l0.008,0.056       l0.122-0.016L428.225,251.353z" />
					<svg:path d="M428.463,251.166l0.006,0.049L428,251.198l-0.006-0.053l0.445-0.14l0.009,0.05l-0.093,0.028l0.011,0.081       L428.463,251.166z M428.286,251.163l-0.009-0.057l-0.177,0.052l0.001,0.001L428.286,251.163z" />
					<svg:path d="M428.112,250.907c-0.027,0.006-0.077,0.021-0.073,0.059c0.004,0.023,0.037,0.05,0.168,0.031       c0.081-0.012,0.153-0.039,0.148-0.078c-0.004-0.025-0.037-0.039-0.092-0.036l-0.006-0.046c0.1-0.005,0.173,0.014,0.182,0.071       c0.008,0.058-0.068,0.112-0.227,0.137c-0.16,0.023-0.247-0.008-0.256-0.065c-0.008-0.067,0.081-0.108,0.15-0.12       L428.112,250.907z" />
					<svg:path d="M427.924,250.797c-0.005-0.029,0.007-0.107,0.222-0.143c0.215-0.036,0.254,0.034,0.258,0.063       c0.005,0.029-0.006,0.106-0.222,0.143C427.968,250.895,427.928,250.826,427.924,250.797z M428.324,250.731       c-0.004-0.025-0.042-0.053-0.17-0.032c-0.129,0.02-0.154,0.06-0.151,0.084c0.006,0.024,0.043,0.053,0.172,0.031       C428.302,250.793,428.327,250.754,428.324,250.731z" />
					<svg:path d="M428.355,250.496l0.008,0.043l-0.172,0.032l-0.273,0.125l-0.009-0.051l0.191-0.081l-0.206-0.006l-0.009-0.051       l0.299,0.02L428.355,250.496z" />
					<svg:path d="M427.855,250.416c-0.005-0.029,0.008-0.108,0.223-0.147c0.214-0.039,0.254,0.03,0.259,0.058       c0.005,0.029-0.008,0.108-0.223,0.147C427.9,250.513,427.861,250.444,427.855,250.416z M428.256,250.342       c-0.005-0.025-0.042-0.053-0.171-0.029c-0.127,0.023-0.152,0.063-0.149,0.088c0.005,0.024,0.043,0.051,0.17,0.028       C428.234,250.406,428.26,250.366,428.256,250.342z" />
					<svg:path d="M428.294,250.181l0.01,0.046l-0.473,0.017l-0.011-0.052l0.44-0.166l0.011,0.049l-0.09,0.032l0.016,0.079       L428.294,250.181z M428.115,250.19l-0.011-0.055l-0.175,0.064l0,0L428.115,250.19z" />
					<svg:path d="M427.93,249.949c-0.026,0.01-0.075,0.028-0.067,0.065c0.004,0.021,0.04,0.047,0.168,0.018       c0.08-0.018,0.15-0.049,0.142-0.087c-0.005-0.025-0.037-0.036-0.095-0.028l-0.009-0.045c0.1-0.012,0.174,0.003,0.185,0.057       c0.013,0.056-0.059,0.115-0.215,0.149c-0.157,0.034-0.247,0.009-0.258-0.047c-0.014-0.063,0.073-0.11,0.138-0.126       L427.93,249.949z" />
					<svg:path d="M428.209,249.784l0.012,0.048l-0.468,0.031l-0.014-0.052l0.431-0.182l0.012,0.047l-0.089,0.037l0.019,0.079       L428.209,249.784z M428.031,249.798l-0.013-0.055l-0.172,0.069L428.031,249.798z" />
					<svg:path d="M427.685,249.592l-0.011-0.042l0.45-0.115l0.012,0.045l-0.299,0.169v0.001l0.321-0.082l0.009,0.04l-0.45,0.115       l-0.011-0.047l0.293-0.164v-0.001L427.685,249.592z" />
				<svg:path d="M427.639,248.182l0,1.326l0.424-0.131C428.063,249.377,427.737,248.312,427.639,248.182z" />
				<svg:path d="M427.639,257.332l0,1.337c0,0,0.426-0.966,0.424-1.217L427.639,257.332z" />
			<svg:path d="M422.849,255.27l-0.52-0.521c-0.184-0.182-0.354-0.342-0.511-0.485l-1.992,0l-0.184-0.422h-0.167v1.938h0.167     l0.184-0.442l3.102,0C422.917,255.324,422.904,255.308,422.849,255.27z" />
			<svg:path d="M422.629,249.209c-0.094,0.576-0.215,1.021-0.362,1.338c-0.341,0.219-0.57,0.456-0.689,0.716     c-0.117,0.257-0.258,0.605-0.422,1.039c-0.353,0.018-0.623,0.07-0.806,0.159c-0.186,0.089-0.357,0.211-0.516,0.37     c0.047,0.107,0.132,0.179,0.257,0.224c0.122,0.045,0.251,0.1,0.387,0.173c-0.101,0.134-0.212,0.274-0.334,0.416     c-0.125,0.145-0.195,0.269-0.213,0.375c0.294,0.129,0.561,0.154,0.802,0.08c0.241-0.076,0.524-0.097,0.846-0.063     c0.101,0.082,0.181,0.161,0.239,0.228h1.895l0.043-0.095c-0.662-0.294-1.191-0.622-1.585-0.988     c-0.078-0.14-0.033-0.321,0.13-0.542c0.166-0.219,0.319-0.399,0.459-0.542c0.352-0.124,0.637-0.114,0.848,0.023     c0.21,0.138,0.424,0.181,0.641,0.127c0.077,0.228,0.045,0.362-0.097,0.395c-0.14,0.035-0.309,0.044-0.504,0.023     c-0.191-0.021-0.37-0.029-0.531-0.029c-0.162,0-0.228,0.083-0.199,0.253c0.471,0.463,1.104,0.822,1.897,1.074     c0.4,0.137,0.751,0.168,1.055,0.094c0.3-0.073,0.48-0.193,0.54-0.356l-0.801-0.472c-0.312-0.185-0.671-0.407-1.076-0.666     c-0.236-0.653-0.369-1.347-0.401-2.087c-0.033-0.739-0.144-1.113-0.331-1.12c-0.07-0.016-0.131,0.059-0.187,0.231     c-0.052,0.17-0.096,0.354-0.129,0.552c-0.037-0.334-0.076-0.651-0.121-0.949c-0.043-0.3-0.182-0.481-0.41-0.538     C422.832,248.447,422.722,248.633,422.629,249.209z" />
			<svg:path d="M423.882,255.781l-0.169-0.442h-0.784c0.328,0.318,0.582,0.678,0.758,1.076c0.175,0.398,0.483,0.581,0.917,0.545     c0.212-0.003,0.442-0.053,0.697-0.144c0.253-0.091,0.547-0.26,0.881-0.507c0.346-0.264,0.637-0.543,0.878-0.831     c0.236-0.29,0.537-0.617,0.903-0.974c-0.066-0.16-0.11-0.213-0.138-0.162c-0.026,0.048-0.334-0.078-0.929-0.378     c-0.364,0.572-1.126,0.741-2.283,0.514c-0.147-0.043-0.336-0.105-0.564-0.196v1.499H423.882z" />
			<svg:path d="M424.048,253.843h-0.166l-0.126,0.327c0.072,0.034,0.169,0.073,0.292,0.113V253.843z" />
			<svg:path d="M427.054,253.139c-0.059-0.364-0.311-0.563-0.755-0.6c-0.443-0.034-0.64,0-0.595,0.105     c0.072,0.155,0.222,0.265,0.455,0.33c0.231,0.069,0.322,0.311,0.27,0.728c0.146,0.088,0.3,0.173,0.467,0.255     c0.099-0.176,0.153-0.335,0.159-0.481C427.059,253.333,427.059,253.22,427.054,253.139z" />
		<svg:path style="fill:#FFFFFF;" d="M362.283,257.404c0-0.263,0-0.512,0-0.774c-0.245,0-0.485,0-0.725,0c0-0.245,0-0.476,0-0.72     c0.495,0,0.98,0,1.475,0c0-0.062,0-0.109,0-0.157c0-1.145,0.002-2.291-0.003-3.436c0-0.113,0.031-0.146,0.142-0.141     c0.2,0.009,0.4,0.002,0.601,0.002c0-0.265,0-0.513,0-0.774c-0.247,0-0.487,0-0.733,0c0-0.241,0-0.469,0-0.714     c0.249,0,0.492,0,0.733,0c0-0.266,0-0.514,0-0.775c-0.248,0-0.488,0-0.741,0c0-0.752,0-1.492,0-2.245c-0.252,0-0.492,0-0.745,0     c0-0.252,0-0.492,0-0.748c-0.253,0-0.493,0-0.73,0c0-0.244,0-0.472,0-0.701c0.486,0,0.963,0,1.454,0c0,0.247,0,0.487,0,0.737     c0.255,0,0.496,0,0.749,0c0,0.501,0,0.991,0,1.479c0.264,0,0.516,0,0.762,0c0-0.508,0-1.006,0-1.515c-0.249,0-0.489,0-0.734,0     c0-0.239,0-0.467,0-0.701c0.737,0,1.468,0,2.205,0c0,0.486,0,0.963,0,1.452c-0.247,0-0.487,0-0.729,0c0,0.263,0,0.515,0,0.777     c0.495,0,0.981,0,1.483,0c0,0.255,0,0.498,0,0.753c0.255,0,0.495,0,0.744,0c0,0.253,0,0.494,0,0.748c0.252,0,0.496,0,0.751,0     c0,0.253,0,0.493,0,0.743c0.252,0,0.493,0,0.746,0c0,0.251,0,0.49,0,0.743c0.254,0,0.495,0,0.737,0c0,0.245,0,0.476,0,0.717     c-0.25,0-0.49,0-0.744,0c0,0.254,0,0.497,0,0.739c-0.246,0-0.478,0-0.724,0c0-0.25,0-0.494,0-0.746c-0.501,0-0.987,0-1.488,0     c0-0.249,0-0.489,0-0.745c-0.253,0-0.493,0-0.733,0c0-0.244,0-0.472,0-0.715c0.246,0,0.485,0,0.724,0c0-0.264,0-0.511,0-0.759     c-0.257,0-0.505,0-0.759,0c0,0.219,0.003,0.429-0.003,0.638c-0.001,0.033-0.036,0.091-0.057,0.092     c-0.217,0.007-0.433,0.004-0.663,0.004c0-0.505,0-0.995,0-1.481c-0.264,0-0.516,0-0.765,0c0,0.505,0,1.001,0,1.513     c0.248,0,0.492,0,0.733,0c0,0.245,0,0.473,0,0.713c-0.249,0-0.489,0-0.733,0c0,0.261,0,0.509,0,0.774c0.249,0,0.492,0,0.732,0     c0,0.249,0,0.48,0,0.723c-0.5,0-0.99,0-1.48,0c0,0.512,0,1.014,0,1.526c0.499,0,0.99,0,1.489,0c0,0.2-0.006,0.389,0.002,0.578     c0.005,0.105-0.024,0.139-0.133,0.137c-0.411-0.006-0.822-0.003-1.233-0.002c-0.042,0-0.085,0.004-0.127,0.005     c0,0.508,0,1.002,0,1.511c0.25,0,0.494,0,0.735,0c0,0.247,0,0.479,0,0.724c-0.251,0-0.495,0-0.733,0c0,0.762,0,1.51,0,2.269     c0.25,0,0.49,0,0.743,0c0,0.251,0,0.491,0,0.743c0.254,0,0.495,0,0.739,0c0,0.241,0,0.47,0,0.701c-0.492,0-0.977,0-1.47,0     c0-0.246,0-0.483,0-0.727c-0.755,0-1.502,0-2.264,0c0,0.252,0,0.492,0,0.74c-0.252,0-0.489,0-0.74,0c0,0.252,0,0.496,0,0.749     c-0.255,0-0.495,0-0.749,0c0,0.254,0,0.498,0,0.75c-0.254,0-0.495,0-0.75,0c0,0.252,0,0.496,0,0.738c-0.247,0-0.478,0-0.712,0     c0-0.49,0-0.972,0-1.466c0.248,0,0.488,0,0.732,0c0-0.263,0-0.515,0-0.767c-0.506,0-1.004,0-1.504,0c0,0.759,0,1.51,0,2.273     c0.252,0,0.492,0,0.728,0c0,0.243,0,0.475,0,0.717c-0.495,0-0.98,0-1.468,0c0,0.261,0,0.508,0,0.765c0.753,0,1.497,0,2.254,0     c0-0.5,0-0.99,0-1.478c0.249,0,0.484,0,0.729,0c0,0.496,0,0.983,0,1.478c0.754,0,1.498,0,2.257,0c0-0.251,0-0.491,0-0.732     c0.247,0,0.478,0,0.718,0c0,0.246,0,0.482,0,0.726c0.261,0,0.513,0,0.778,0c0-0.247,0-0.487,0-0.738c0.253,0,0.494,0,0.737,0     c0-0.512,0-1.013,0-1.524c-0.25,0-0.49,0-0.731,0c0-0.245,0-0.48,0-0.712c0.492,0,0.973,0,1.466,0c0,0.249,0,0.49,0,0.742     c0.251,0,0.491,0,0.746,0c0,0.255,0,0.498,0,0.751c0.252,0,0.489,0,0.74,0c0,0.499,0,0.988,0,1.484c0.513,0,1.011,0,1.509,0     c0-0.26,0-0.509,0-0.766c-0.209,0-0.41-0.005-0.611,0.002c-0.099,0.003-0.135-0.026-0.131-0.129     c0.007-0.204,0.002-0.408,0.002-0.621c-0.254,0-0.491,0-0.736,0c0-0.245,0-0.48,0-0.728c0.249,0,0.489,0,0.741,0     c0-0.252,0-0.493,0-0.738c0.244,0,0.475,0,0.721,0c0,0.25,0,0.494,0,0.746c0.255,0,0.495,0,0.749,0c0,0.252,0,0.496,0,0.74     c0.512,0,1.01,0,1.523,0c0-0.25,0-0.493,0-0.745c0.252,0,0.488,0,0.742,0c0-0.252,0-0.495,0-0.741c0.495,0,0.973,0,1.452,0     c0,0.242,0,0.478,0,0.722c-0.249,0-0.49,0-0.745,0c0,0.252,0,0.496,0,0.748c-0.252,0-0.489,0-0.73,0c0,0.261,0,0.512,0,0.776     c0.499,0,0.989,0,1.487,0c0,0.25,0,0.486,0,0.732c1.754,0,3.499,0,5.245,0c0-0.759,0-1.504,0-2.252c-0.258,0-0.509,0-0.773,0     c0,0.498,0,0.987,0,1.478c-0.739,0-1.466,0-2.205,0c0-0.249,0-0.489,0-0.74c-0.253,0-0.493,0-0.735,0c0-0.247,0-0.482,0-0.728     c0.745,0,1.482,0,2.23,0c0-0.252,0-0.493,0-0.746c0.502,0,0.992,0,1.48,0c0-0.264,0-0.516,0-0.778c-0.25,0-0.49,0-0.733,0     c0-0.239,0-0.467,0-0.712c0.249,0,0.492,0,0.733,0c0-0.265,0-0.513,0-0.773c-0.25,0-0.49,0-0.73,0c0-0.244,0-0.476,0-0.717     c0.25,0,0.49,0,0.731,0c0-0.262,0-0.513,0-0.774c-0.249,0-0.49,0-0.73,0c0-0.245,0-0.48,0-0.726c0.25,0,0.491,0,0.73,0     c0-0.263,0-0.514,0-0.776c-0.746,0-1.483,0-2.221,0c0-0.239,0-0.467,0-0.713c0.246,0,0.486,0,0.737,0c0-0.253,0-0.489,0-0.732     c0.244,0,0.475,0,0.721,0c0,0.245,0,0.485,0,0.728c0.262,0,0.511,0,0.766,0c0-0.254,0-0.502,0-0.767c-0.249,0-0.492,0-0.736,0     c0-0.245,0-0.474,0-0.716c0.249,0,0.493,0,0.733,0c0-0.266,0-0.517,0-0.779c-0.25,0-0.49,0-0.741,0c0-0.251,0-0.491,0-0.747     c-0.253,0-0.496,0-0.735,0c0-0.248,0-0.479,0-0.724c0.25,0,0.49,0,0.739,0c0-0.25,0-0.487,0-0.741c0.252,0,0.495,0,0.738,0     c0-0.266,0-0.513,0-0.768c-0.061,0-0.113,0-0.165,0c-0.403,0-0.806,0-1.209-0.001c-0.049,0-0.113,0.016-0.113-0.069     c0-0.213,0-0.425,0-0.649c0.505,0,0.995,0,1.488,0c0-0.263,0-0.515,0-0.777c-0.248,0-0.488,0-0.732,0c0-0.246,0-0.481,0-0.726     c0.249,0,0.49,0,0.732,0c0-0.262,0-0.513,0-0.762c-0.26,0-0.511,0-0.772,0c0,0.25,0,0.491,0,0.746c-0.252,0-0.496,0-0.749,0     c0,0.255,0,0.495,0,0.749c-0.25,0-0.489,0-0.74,0c0,0.5,0,0.986,0,1.479c-0.492,0-0.973,0-1.45,0c0-0.241,0-0.473,0-0.715     c0.25,0,0.49,0,0.731,0c0-0.259,0-0.508,0-0.771c-0.25,0-0.493,0-0.734,0c0-0.248,0-0.48,0-0.726c0.496,0,0.985,0,1.484,0     c0-0.219,0.004-0.425-0.002-0.63c-0.003-0.09,0.026-0.119,0.117-0.116c0.204,0.006,0.409,0.002,0.608,0.002     c0.009-0.02,0.015-0.027,0.015-0.034c0.001-0.141,0.003-0.282,0.003-0.423c0-0.288,0-0.288,0.282-0.288c0.152,0,0.303,0,0.467,0     c0-0.502,0-0.988,0-1.489c0.255,0,0.499,0,0.741,0c0-0.263,0-0.512,0-0.776c-0.745,0-1.484,0-2.223,0c0-0.248,0-0.48,0-0.722     c0.745,0,1.481,0,2.221,0c0-0.263,0-0.514,0-0.764c-0.755,0-1.503,0-2.262,0c0,0.249,0,0.49,0,0.744c-0.251,0-0.491,0-0.742,0     c0,0.254,0,0.495,0,0.74c-0.243,0-0.475,0-0.72,0c0-0.5,0-0.994,0-1.499c-0.754,0-1.494,0-2.247,0c0-0.747,0-1.482,0-2.23     c-0.499,0-0.984,0-1.474,0c0-0.245,0-0.476,0-0.721c0.246,0,0.486,0,0.728,0c0-0.262,0-0.511,0-0.765c-0.254,0-0.502,0-0.766,0     c0,0.249,0,0.493,0,0.734c-0.248,0-0.48,0-0.721,0c0-0.25,0-0.49,0-0.744c-0.253,0-0.497,0-0.737,0c0-0.495,0-0.977,0-1.469     c0.249,0,0.49,0,0.735,0c0-0.259,0-0.507,0-0.761c-1.007,0-2.007,0-3.006,0c0,0.26,0,0.505,0,0.763c0.496,0,0.986,0,1.481,0     c0,0.745,0,1.477,0,2.214c-0.238,0-0.47,0-0.717,0c0-0.499,0-0.992,0-1.497c-0.502,0-0.988,0-1.484,0c0-0.498,0-0.985,0-1.482     c-0.511,0-1.012,0-1.526,0c0,0.252,0,0.492,0,0.728c-0.495,0-0.977,0-1.469,0c0-0.246,0-0.483,0-0.723c-0.262,0-0.513,0-0.775,0     c0,0.496,0,0.983,0,1.474c-0.738,0-1.466,0-2.209,0c0-0.249,0-0.492,0-0.748c-0.505,0-0.995,0-1.495,0c0-0.249,0-0.486,0-0.727     c-0.262,0-0.513,0-0.779,0c0,0.249,0,0.489,0,0.724c-0.242,0-0.47,0-0.708,0c0-0.245,0-0.482,0-0.723c-0.261,0-0.512,0-0.766,0     c0,0.754,0,1.499,0,2.256c0.249,0,0.488,0,0.732,0c0,0.494,0,0.976,0,1.472c-0.247,0-0.487,0-0.739,0c0,1,0,1.986,0,2.975     c-0.245,0-0.477,0-0.722,0c0-0.249,0-0.493,0-0.735c-0.265,0-0.516,0-0.777,0c0,0.25,0,0.49,0,0.731c-0.244,0-0.479,0-0.724,0     c0-0.25,0-0.491,0-0.734c-0.755,0-1.499,0-2.259,0c0,0.5,0,0.993,0,1.484c-0.248,0-0.479,0-0.721,0c0-0.249,0-0.49,0-0.733     c-0.261,0-0.513,0-0.762,0c0,0.26,0,0.511,0,0.772c0.25,0,0.491,0,0.744,0c0,0.499,0,0.989,0,1.493c0.253,0,0.492,0,0.735,0     c0,0.242,0,0.469,0,0.71c-0.498,0-0.988,0-1.483,0c0,0.512,0,1.01,0,1.512c0.508,0,1.009,0,1.524,0c0-0.498,0-0.987,0-1.477     c0.241,0,0.469,0,0.712,0c0,0.248,0,0.487,0,0.738c0.252,0,0.488,0,0.73,0c0,0.496,0,0.981,0,1.475c-0.246,0-0.483,0-0.735,0     c0,0.499,0,0.988,0,1.482c-0.244,0-0.472,0-0.713,0c0-0.246,0-0.486,0-0.741c-0.256,0-0.499,0-0.753,0c0-0.255,0-0.495,0-0.736     c-0.262,0-0.514,0-0.766,0c0,0.257,0,0.506,0,0.769c0.249,0,0.492,0,0.747,0c0,0.5,0,0.987,0,1.481c0.509,0,1.006,0,1.52,0     c0-0.252,0-0.492,0-0.729c0.244,0,0.472,0,0.711,0c0,0.245,0,0.481,0,0.722c0.262,0,0.513,0,0.761,0c0-0.258,0-0.505,0-0.759     c-0.216,0-0.421-0.003-0.627,0.002c-0.085,0.002-0.112-0.026-0.11-0.11c0.004-0.302,0.002-0.604,0.002-0.906     c0-0.148,0-0.296,0-0.445c0.248,0,0.48,0,0.724,0c0,0.251,0,0.495,0,0.736c0.512,0,1.011,0,1.511,0c0-0.258,0-0.51,0-0.772     c-0.498,0-0.989,0-1.48,0c0-0.246,0-0.481,0-0.727c0.5,0,0.991,0,1.492,0c0-0.251,0-0.491,0-0.746c0.254,0,0.497,0,0.753,0     c0-0.254,0-0.494,0-0.742c0.202,0,0.391,0.007,0.58-0.003c0.111-0.005,0.137,0.034,0.133,0.138c-0.008,0.2-0.002,0.4-0.002,0.611     c0.254,0,0.49,0,0.732,0c0,0.246,0,0.481,0,0.725c-0.246,0-0.482,0-0.734,0c0,0.253,0,0.497,0,0.753c-0.256,0-0.496,0-0.735,0     c0,0.261,0,0.51,0,0.764c0.255,0,0.503,0,0.766,0c0-0.249,0-0.492,0-0.749c0.255,0,0.494,0,0.744,0c0-0.255,0-0.496,0-0.737     c0.243,0,0.475,0,0.72,0c0,0.252,0,0.495,0,0.748c0.504,0,0.995,0,1.498,0c0,0.996,0,1.982,0,2.975     c0.214,0,0.415,0.005,0.616-0.002c0.1-0.004,0.133,0.026,0.13,0.128c-0.007,0.204-0.002,0.408-0.002,0.624     c0.502,0,0.988,0,1.473,0c0,0.496,0,0.981,0,1.477c-0.248,0-0.485,0-0.729,0c0,0.213-0.004,0.415,0.002,0.616     c0.003,0.093-0.022,0.128-0.121,0.125c-0.298-0.006-0.596-0.002-0.894-0.002c-0.148,0-0.296,0-0.457,0c0-0.755,0-1.495,0-2.248     c-0.256,0-0.5,0-0.755,0c0-0.503,0-0.993,0-1.494c-0.499,0-0.985,0-1.479,0c0-0.239,0-0.467,0-0.709c0.246,0,0.486,0,0.728,0     c0-0.266,0-0.517,0-0.763c-0.258,0-0.506,0-0.764,0c0,0.246,0,0.483,0,0.736c-0.249,0-0.489,0-0.741,0c0,0.253,0,0.489,0,0.732     c-0.244,0-0.475,0-0.72,0c0-0.247,0-0.487,0-0.73c-0.512,0-1.01,0-1.514,0c0,0.259,0,0.507,0,0.773c0.499,0,0.992,0,1.482,0     c0,0.246,0,0.474,0,0.713c-0.499,0-0.989,0-1.492,0c0,0.254,0,0.498,0,0.741c-0.246,0-0.478,0-0.724,0c0-0.25,0-0.494,0-0.737     c-0.509,0-1.004,0-1.514,0c0,0.25,0,0.494,0,0.749c-0.255,0-0.495,0-0.746,0c0,0.253,0,0.494,0,0.738c-0.243,0-0.474,0-0.72,0     c0-0.25,0-0.493,0-0.734c-0.265,0-0.517,0-0.765,0c0,0.508,0,1.007,0,1.517c0.497,0,0.987,0,1.49,0     c0,0.196-0.009,0.381,0.003,0.565c0.008,0.126-0.034,0.16-0.156,0.154c-0.195-0.01-0.391-0.003-0.598-0.003     c0,0.255,0,0.491,0,0.744c-0.254,0-0.497,0-0.737,0c0,1.015,0,2.013,0,3.01c0.258,0,0.506,0,0.771,0c0-0.749,0-1.493,0-2.246     c0.256,0,0.496,0,0.749,0c0-0.25,0-0.49,0-0.73c1.239,0,2.465,0,3.69,0c0,0.24,0,0.472,0,0.714c-0.997,0-1.984,0-2.981,0     c0,0.251,0,0.493,0,0.746c-0.25,0-0.49,0-0.732,0c0,0.264,0,0.515,0,0.774c0.246,0,0.483,0,0.735,0c0,0.252,0,0.495,0,0.742     c0.263,0,0.511,0,0.774,0c0-0.251,0-0.494,0-0.737c0.494,0,0.973,0,1.465,0c0,0.249,0,0.493,0,0.736c0.265,0,0.516,0,0.777,0     c0-0.249,0-0.49,0-0.744c0.252,0,0.496,0,0.753,0c0-0.257,0-0.5,0-0.754c0.5,0,0.986,0,1.479,0c0-0.463,0.003-0.914-0.002-1.365     c-0.001-0.098,0.03-0.124,0.124-0.122c0.237,0.006,0.475,0.002,0.712,0.002c0.209,0,0.418,0,0.626,0c0,0.497,0,0.979,0,1.47     c-0.249,0-0.49,0-0.744,0c0,0.252,0,0.496,0,0.751c-0.253,0-0.493,0-0.746,0c0,0.252,0,0.492,0,0.744c-0.499,0-0.984,0-1.474,0     c0,0.264,0,0.514,0,0.775c0.246,0,0.483,0,0.736,0c0,0.249,0,0.489,0,0.739c0.76,0,1.503,0,2.261,0c0-0.5,0-0.99,0-1.478     c0.25,0,0.485,0,0.732,0c0,0.25,0,0.49,0,0.729c0.26,0,0.508,0,0.758,0c0-0.259,0-0.51,0-0.771c-0.25,0-0.49,0-0.731,0     c0-0.245,0-0.48,0-0.724c0.25,0,0.491,0,0.745,0c0-0.252,0-0.496,0-0.746C361.304,257.404,361.787,257.404,362.283,257.404z      M355.545,259.635c-1.747,0-3.483,0-5.218,0c0,1.743,0,3.475,0,5.21c1.743,0,3.479,0,5.218,0     C355.545,263.105,355.545,261.375,355.545,259.635z M350.326,237.233c0,1.741,0,3.474,0,5.213c1.741,0,3.477,0,5.218,0     c0-1.741,0-3.474,0-5.213C353.802,237.233,352.065,237.233,350.326,237.233z M372.717,242.444c1.746,0,3.482,0,5.218,0     c0-1.742,0-3.475,0-5.21c-1.743,0-3.479,0-5.218,0C372.717,238.974,372.717,240.704,372.717,242.444z M356.299,261.116     c0,0.759,0,1.507,0,2.259c0.258,0,0.509,0,0.764,0c0-0.757,0-1.505,0-2.259C356.807,261.116,356.559,261.116,356.299,261.116z      M370.486,238.737c0.257,0,0.503,0,0.763,0c0-0.205,0.005-0.406-0.002-0.606c-0.004-0.103,0.022-0.143,0.133-0.138     c0.2,0.009,0.4,0.003,0.604,0.003c0-0.263,0-0.511,0-0.762c-0.256,0-0.504,0-0.767,0c0,0.247,0,0.487,0,0.737     c-0.251,0-0.488,0-0.73,0C370.486,238.229,370.486,238.478,370.486,238.737z M363.027,259.647c0-0.511,0-1.009,0-1.51     c-0.258,0-0.506,0-0.759,0c0,0.507,0,1.008,0,1.51C362.525,259.647,362.77,259.647,363.027,259.647z M369.755,264.114     c-0.262,0-0.513,0-0.763,0c0,0.256,0,0.503,0,0.751c0.259,0,0.509,0,0.763,0C369.755,264.611,369.755,264.367,369.755,264.114z" />
			<svg:path d="M362.283,257.404c-0.496,0-0.979,0-1.476,0c0,0.25,0,0.494,0,0.746c-0.254,0-0.495,0-0.745,0c0,0.244,0,0.479,0,0.724     c0.241,0,0.482,0,0.731,0c0,0.261,0,0.512,0,0.771c-0.25,0-0.498,0-0.758,0c0-0.24,0-0.48,0-0.729c-0.247,0-0.482,0-0.732,0     c0,0.487,0,0.977,0,1.478c-0.758,0-1.502,0-2.261,0c0-0.25,0-0.49,0-0.739c-0.253,0-0.49,0-0.736,0c0-0.261,0-0.512,0-0.775     c0.489,0,0.975,0,1.474,0c0-0.252,0-0.493,0-0.744c0.252,0,0.492,0,0.746,0c0-0.255,0-0.499,0-0.751c0.254,0,0.494,0,0.744,0     c0-0.491,0-0.972,0-1.47c-0.208,0-0.417,0-0.626,0c-0.237,0-0.475,0.004-0.712-0.002c-0.094-0.002-0.125,0.024-0.124,0.122     c0.005,0.451,0.002,0.902,0.002,1.365c-0.493,0-0.979,0-1.479,0c0,0.254,0,0.498,0,0.754c-0.257,0-0.501,0-0.753,0     c0,0.254,0,0.494,0,0.744c-0.26,0-0.512,0-0.777,0c0-0.243,0-0.487,0-0.736c-0.492,0-0.971,0-1.465,0c0,0.243,0,0.486,0,0.737     c-0.263,0-0.511,0-0.774,0c0-0.246,0-0.49,0-0.742c-0.252,0-0.489,0-0.735,0c0-0.259,0-0.511,0-0.774c0.241,0,0.481,0,0.732,0     c0-0.253,0-0.494,0-0.746c0.998,0,1.985,0,2.981,0c0-0.242,0-0.473,0-0.714c-1.224,0-2.45,0-3.69,0c0,0.24,0,0.48,0,0.73     c-0.253,0-0.493,0-0.749,0c0,0.754,0,1.497,0,2.246c-0.264,0-0.513,0-0.771,0c0-0.997,0-1.995,0-3.01c0.24,0,0.483,0,0.737,0     c0-0.252,0-0.489,0-0.744c0.206,0,0.402-0.007,0.598,0.003c0.122,0.006,0.163-0.028,0.156-0.154     c-0.012-0.184-0.003-0.369-0.003-0.565c-0.502,0-0.992,0-1.49,0c0-0.51,0-1.009,0-1.517c0.248,0,0.5,0,0.765,0     c0,0.241,0,0.484,0,0.734c0.245,0,0.477,0,0.72,0c0-0.244,0-0.485,0-0.738c0.25,0,0.49,0,0.746,0c0-0.256,0-0.499,0-0.749     c0.51,0,1.005,0,1.514,0c0,0.243,0,0.486,0,0.737c0.246,0,0.479,0,0.724,0c0-0.243,0-0.486,0-0.741c0.503,0,0.994,0,1.492,0     c0-0.239,0-0.467,0-0.713c-0.49,0-0.983,0-1.482,0c0-0.266,0-0.514,0-0.773c0.503,0,1.001,0,1.514,0c0,0.243,0,0.483,0,0.73     c0.245,0,0.476,0,0.72,0c0-0.243,0-0.479,0-0.732c0.252,0,0.491,0,0.741,0c0-0.253,0-0.49,0-0.736c0.258,0,0.506,0,0.764,0     c0,0.247,0,0.498,0,0.763c-0.242,0-0.482,0-0.728,0c0,0.242,0,0.47,0,0.709c0.493,0,0.98,0,1.479,0c0,0.501,0,0.99,0,1.494     c0.255,0,0.499,0,0.755,0c0,0.754,0,1.494,0,2.248c0.161,0,0.309,0,0.457,0c0.298,0,0.596-0.004,0.894,0.002     c0.099,0.002,0.124-0.033,0.121-0.125c-0.006-0.201-0.002-0.403-0.002-0.616c0.244,0,0.48,0,0.729,0c0-0.496,0-0.98,0-1.477     c-0.485,0-0.971,0-1.473,0c0-0.216-0.005-0.42,0.002-0.624c0.004-0.102-0.03-0.132-0.13-0.128     c-0.201,0.007-0.402,0.002-0.616,0.002c0-0.994,0-1.98,0-2.975c-0.503,0-0.994,0-1.498,0c0-0.252,0-0.496,0-0.748     c-0.245,0-0.477,0-0.72,0c0,0.242,0,0.482,0,0.737c-0.25,0-0.49,0-0.744,0c0,0.257,0,0.5,0,0.749c-0.263,0-0.511,0-0.766,0     c0-0.254,0-0.502,0-0.764c0.239,0,0.479,0,0.735,0c0-0.256,0-0.499,0-0.753c0.252,0,0.489,0,0.734,0c0-0.244,0-0.479,0-0.725     c-0.242,0-0.478,0-0.732,0c0-0.211-0.005-0.411,0.002-0.611c0.004-0.104-0.022-0.143-0.133-0.138     c-0.189,0.009-0.378,0.003-0.58,0.003c0,0.248,0,0.488,0,0.742c-0.255,0-0.499,0-0.753,0c0,0.255,0,0.495,0,0.746     c-0.501,0-0.991,0-1.492,0c0,0.246,0,0.481,0,0.727c0.491,0,0.982,0,1.48,0c0,0.262,0,0.514,0,0.772c-0.501,0-0.999,0-1.511,0     c0-0.241,0-0.485,0-0.736c-0.245,0-0.477,0-0.724,0c0,0.149,0,0.297,0,0.445c0,0.302,0.003,0.604-0.002,0.906     c-0.001,0.085,0.026,0.113,0.11,0.11c0.205-0.005,0.411-0.002,0.627-0.002c0,0.254,0,0.501,0,0.759c-0.249,0-0.499,0-0.761,0     c0-0.241,0-0.477,0-0.722c-0.239,0-0.467,0-0.711,0c0,0.237,0,0.477,0,0.729c-0.514,0-1.011,0-1.52,0c0-0.494,0-0.98,0-1.481     c-0.254,0-0.498,0-0.747,0c0-0.263,0-0.511,0-0.769c0.252,0,0.503,0,0.766,0c0,0.241,0,0.481,0,0.736c0.254,0,0.497,0,0.753,0     c0,0.254,0,0.494,0,0.741c0.241,0,0.469,0,0.713,0c0-0.494,0-0.983,0-1.482c0.252,0,0.489,0,0.735,0c0-0.495,0-0.979,0-1.475     c-0.242,0-0.478,0-0.73,0c0-0.25,0-0.49,0-0.738c-0.243,0-0.471,0-0.712,0c0,0.49,0,0.979,0,1.477c-0.515,0-1.016,0-1.524,0     c0-0.502,0-1,0-1.512c0.495,0,0.985,0,1.483,0c0-0.241,0-0.468,0-0.71c-0.243,0-0.483,0-0.735,0c0-0.504,0-0.994,0-1.493     c-0.253,0-0.494,0-0.744,0c0-0.261,0-0.512,0-0.772c0.249,0,0.5,0,0.762,0c0,0.243,0,0.483,0,0.733c0.241,0,0.473,0,0.721,0     c0-0.491,0-0.984,0-1.484c0.76,0,1.504,0,2.259,0c0,0.243,0,0.484,0,0.734c0.245,0,0.48,0,0.724,0c0-0.241,0-0.481,0-0.731     c0.26,0,0.512,0,0.777,0c0,0.242,0,0.485,0,0.735c0.245,0,0.477,0,0.722,0c0-0.989,0-1.975,0-2.975c0.252,0,0.491,0,0.739,0     c0-0.496,0-0.978,0-1.472c-0.243,0-0.483,0-0.732,0c0-0.757,0-1.501,0-2.256c0.255,0,0.505,0,0.766,0c0,0.241,0,0.478,0,0.723     c0.238,0,0.466,0,0.708,0c0-0.235,0-0.475,0-0.724c0.265,0,0.517,0,0.779,0c0,0.241,0,0.477,0,0.727c0.5,0,0.99,0,1.495,0     c0,0.255,0,0.498,0,0.748c0.743,0,1.471,0,2.209,0c0-0.491,0-0.978,0-1.474c0.261,0,0.513,0,0.775,0c0,0.24,0,0.477,0,0.723     c0.492,0,0.974,0,1.469,0c0-0.236,0-0.476,0-0.728c0.514,0,1.015,0,1.526,0c0,0.498,0,0.984,0,1.482c0.496,0,0.982,0,1.484,0     c0,0.504,0,0.997,0,1.497c0.247,0,0.479,0,0.717,0c0-0.736,0-1.468,0-2.214c-0.495,0-0.985,0-1.481,0c0-0.258,0-0.503,0-0.763     c0.999,0,1.999,0,3.006,0c0,0.254,0,0.501,0,0.761c-0.245,0-0.485,0-0.735,0c0,0.493,0,0.974,0,1.469c0.24,0,0.484,0,0.737,0     c0,0.254,0,0.494,0,0.744c0.241,0,0.473,0,0.721,0c0-0.241,0-0.484,0-0.734c0.264,0,0.512,0,0.766,0c0,0.254,0,0.503,0,0.765     c-0.243,0-0.482,0-0.728,0c0,0.245,0,0.477,0,0.721c0.489,0,0.975,0,1.474,0c0,0.748,0,1.483,0,2.23c0.753,0,1.493,0,2.247,0     c0,0.505,0,0.999,0,1.499c0.246,0,0.477,0,0.72,0c0-0.246,0-0.486,0-0.74c0.251,0,0.491,0,0.742,0c0-0.254,0-0.494,0-0.744     c0.759,0,1.507,0,2.262,0c0,0.25,0,0.502,0,0.764c-0.74,0-1.477,0-2.221,0c0,0.243,0,0.475,0,0.722c0.739,0,1.478,0,2.223,0     c0,0.264,0,0.513,0,0.776c-0.242,0-0.486,0-0.741,0c0,0.5,0,0.986,0,1.489c-0.164,0-0.315,0-0.467,0     c-0.282,0-0.282,0-0.282,0.288c0,0.141-0.002,0.282-0.003,0.423c0,0.007-0.006,0.014-0.015,0.034     c-0.199,0-0.404,0.004-0.608-0.002c-0.091-0.003-0.12,0.026-0.117,0.116c0.006,0.205,0.002,0.41,0.002,0.63     c-0.498,0-0.988,0-1.484,0c0,0.246,0,0.479,0,0.726c0.241,0,0.485,0,0.734,0c0,0.264,0,0.512,0,0.771c-0.241,0-0.481,0-0.731,0     c0,0.242,0,0.474,0,0.715c0.477,0,0.958,0,1.45,0c0-0.493,0-0.979,0-1.479c0.251,0,0.49,0,0.74,0c0-0.254,0-0.494,0-0.749     c0.253,0,0.497,0,0.749,0c0-0.255,0-0.495,0-0.746c0.26,0,0.512,0,0.772,0c0,0.248,0,0.5,0,0.762c-0.242,0-0.482,0-0.732,0     c0,0.245,0,0.48,0,0.726c0.244,0,0.484,0,0.732,0c0,0.262,0,0.514,0,0.777c-0.493,0-0.983,0-1.488,0c0,0.224,0,0.437,0,0.649     c0,0.085,0.063,0.069,0.113,0.069c0.403,0.001,0.806,0.001,1.209,0.001c0.052,0,0.104,0,0.165,0c0,0.255,0,0.503,0,0.768     c-0.243,0-0.486,0-0.738,0c0,0.254,0,0.491,0,0.741c-0.249,0-0.489,0-0.739,0c0,0.245,0,0.476,0,0.724c0.239,0,0.482,0,0.735,0     c0,0.256,0,0.497,0,0.747c0.25,0,0.491,0,0.741,0c0,0.262,0,0.513,0,0.779c-0.24,0-0.484,0-0.733,0c0,0.243,0,0.471,0,0.716     c0.244,0,0.487,0,0.736,0c0,0.265,0,0.512,0,0.767c-0.255,0-0.504,0-0.766,0c0-0.243,0-0.482,0-0.728c-0.245,0-0.477,0-0.721,0     c0,0.243,0,0.479,0,0.732c-0.251,0-0.49,0-0.737,0c0,0.246,0,0.474,0,0.713c0.738,0,1.475,0,2.221,0c0,0.262,0,0.513,0,0.776     c-0.239,0-0.479,0-0.73,0c0,0.246,0,0.481,0,0.726c0.24,0,0.481,0,0.73,0c0,0.261,0,0.513,0,0.774c-0.24,0-0.481,0-0.731,0     c0,0.241,0,0.473,0,0.717c0.24,0,0.48,0,0.73,0c0,0.26,0,0.508,0,0.773c-0.241,0-0.484,0-0.733,0c0,0.246,0,0.474,0,0.712     c0.243,0,0.483,0,0.733,0c0,0.262,0,0.513,0,0.778c-0.488,0-0.978,0-1.48,0c0,0.253,0,0.493,0,0.746c-0.748,0-1.484,0-2.23,0     c0,0.247,0,0.482,0,0.728c0.241,0,0.482,0,0.735,0c0,0.251,0,0.492,0,0.74c0.739,0,1.466,0,2.205,0c0-0.491,0-0.98,0-1.478     c0.264,0,0.515,0,0.773,0c0,0.748,0,1.493,0,2.252c-1.746,0-3.491,0-5.245,0c0-0.245,0-0.482,0-0.732c-0.498,0-0.988,0-1.487,0     c0-0.264,0-0.516,0-0.776c0.241,0,0.478,0,0.73,0c0-0.252,0-0.495,0-0.748c0.256,0,0.496,0,0.745,0c0-0.245,0-0.48,0-0.722     c-0.479,0-0.957,0-1.452,0c0,0.246,0,0.489,0,0.741c-0.254,0-0.491,0-0.742,0c0,0.251,0,0.495,0,0.745c-0.513,0-1.011,0-1.523,0     c0-0.244,0-0.488,0-0.74c-0.254,0-0.494,0-0.749,0c0-0.252,0-0.495,0-0.746c-0.246,0-0.477,0-0.721,0c0,0.245,0,0.485,0,0.738     c-0.252,0-0.492,0-0.741,0c0,0.248,0,0.483,0,0.728c0.245,0,0.481,0,0.736,0c0,0.213,0.005,0.417-0.002,0.621     c-0.004,0.103,0.032,0.132,0.131,0.129c0.201-0.007,0.402-0.002,0.611-0.002c0,0.257,0,0.506,0,0.766c-0.498,0-0.996,0-1.509,0     c0-0.495,0-0.984,0-1.484c-0.251,0-0.488,0-0.74,0c0-0.253,0-0.496,0-0.751c-0.255,0-0.495,0-0.746,0c0-0.252,0-0.492,0-0.742     c-0.493,0-0.975,0-1.466,0c0,0.232,0,0.467,0,0.712c0.241,0,0.481,0,0.731,0c0,0.511,0,1.012,0,1.524c-0.243,0-0.484,0-0.737,0     c0,0.25,0,0.49,0,0.738c-0.265,0-0.517,0-0.778,0c0-0.244,0-0.481,0-0.726c-0.24,0-0.471,0-0.718,0c0,0.241,0,0.481,0,0.732     c-0.759,0-1.503,0-2.257,0c0-0.496,0-0.982,0-1.478c-0.245,0-0.48,0-0.729,0c0,0.488,0,0.978,0,1.478c-0.758,0-1.501,0-2.254,0     c0-0.256,0-0.504,0-0.765c0.488,0,0.973,0,1.468,0c0-0.243,0-0.474,0-0.717c-0.236,0-0.476,0-0.728,0c0-0.763,0-1.514,0-2.273     c0.5,0,0.998,0,1.504,0c0,0.252,0,0.503,0,0.767c-0.243,0-0.483,0-0.732,0c0,0.494,0,0.975,0,1.466c0.234,0,0.466,0,0.712,0     c0-0.242,0-0.485,0-0.738c0.255,0,0.496,0,0.75,0c0-0.253,0-0.496,0-0.75c0.254,0,0.494,0,0.749,0c0-0.254,0-0.497,0-0.749     c0.251,0,0.488,0,0.74,0c0-0.248,0-0.487,0-0.74c0.762,0,1.509,0,2.264,0c0,0.244,0,0.481,0,0.727c0.493,0,0.978,0,1.47,0     c0-0.231,0-0.459,0-0.701c-0.244,0-0.484,0-0.739,0c0-0.253,0-0.493,0-0.743c-0.254,0-0.494,0-0.743,0c0-0.759,0-1.507,0-2.269     c0.238,0,0.481,0,0.733,0c0-0.245,0-0.477,0-0.724c-0.241,0-0.485,0-0.735,0c0-0.509,0-1.003,0-1.511     c0.043-0.002,0.085-0.005,0.127-0.005c0.411,0,0.822-0.004,1.233,0.002c0.109,0.002,0.138-0.032,0.133-0.137     c-0.008-0.189-0.002-0.378-0.002-0.578c-0.499,0-0.99,0-1.489,0c0-0.512,0-1.014,0-1.526c0.49,0,0.98,0,1.48,0     c0-0.242,0-0.474,0-0.723c-0.24,0-0.483,0-0.732,0c0-0.265,0-0.513,0-0.774c0.243,0,0.484,0,0.733,0c0-0.24,0-0.468,0-0.713     c-0.242,0-0.485,0-0.733,0c0-0.513,0-1.008,0-1.513c0.249,0,0.501,0,0.765,0c0,0.486,0,0.976,0,1.481     c0.229,0,0.446,0.003,0.663-0.004c0.021-0.001,0.057-0.059,0.057-0.092c0.005-0.209,0.003-0.419,0.003-0.638     c0.254,0,0.502,0,0.759,0c0,0.247,0,0.495,0,0.759c-0.239,0-0.478,0-0.724,0c0,0.244,0,0.472,0,0.715c0.241,0,0.48,0,0.733,0     c0,0.256,0,0.496,0,0.745c0.501,0,0.988,0,1.488,0c0,0.252,0,0.495,0,0.746c0.246,0,0.478,0,0.724,0c0-0.241,0-0.485,0-0.739     c0.253,0,0.494,0,0.744,0c0-0.241,0-0.472,0-0.717c-0.242,0-0.483,0-0.737,0c0-0.253,0-0.493,0-0.743c-0.254,0-0.494,0-0.746,0     c0-0.25,0-0.49,0-0.743c-0.255,0-0.499,0-0.751,0c0-0.254,0-0.494,0-0.748c-0.248,0-0.488,0-0.744,0c0-0.255,0-0.499,0-0.753     c-0.502,0-0.988,0-1.483,0c0-0.263,0-0.514,0-0.777c0.242,0,0.482,0,0.729,0c0-0.489,0-0.966,0-1.452c-0.737,0-1.468,0-2.205,0     c0,0.234,0,0.462,0,0.701c0.245,0,0.485,0,0.734,0c0,0.509,0,1.007,0,1.515c-0.247,0-0.498,0-0.762,0c0-0.489,0-0.979,0-1.479     c-0.253,0-0.494,0-0.749,0c0-0.25,0-0.489,0-0.737c-0.491,0-0.969,0-1.454,0c0,0.23,0,0.458,0,0.701c0.238,0,0.477,0,0.73,0     c0,0.255,0,0.495,0,0.748c0.253,0,0.493,0,0.745,0c0,0.752,0,1.492,0,2.245c0.252,0,0.492,0,0.741,0c0,0.261,0,0.509,0,0.775     c-0.24,0-0.483,0-0.733,0c0,0.245,0,0.473,0,0.714c0.246,0,0.486,0,0.733,0c0,0.262,0,0.51,0,0.774     c-0.201,0-0.401,0.006-0.601-0.002c-0.111-0.005-0.143,0.028-0.142,0.141c0.004,1.145,0.003,2.291,0.003,3.436     c0,0.048,0,0.095,0,0.157c-0.495,0-0.98,0-1.475,0c0,0.244,0,0.475,0,0.72c0.24,0,0.48,0,0.725,0     C362.283,256.892,362.283,257.141,362.283,257.404z M364.502,244.715c-0.752,0-1.492,0-2.243,0c0-0.252,0-0.493,0-0.747     c-0.25,0-0.49,0-0.73,0c0-0.265,0-0.516,0-0.778c0.496,0,0.982,0,1.467,0c0-0.243,0-0.474,0-0.72c-0.248,0-0.488,0-0.739,0     c0-0.251,0-0.487,0-0.725c-0.243,0-0.473,0-0.715,0c0,0.247,0,0.483,0,0.723c-0.26,0-0.508,0-0.768,0c0-0.493,0-0.979,0-1.47     c-1.24,0-2.468,0-3.699,0c0,0.484,0,0.962,0,1.443c0.236,0,0.464,0,0.707,0c0-0.245,0-0.485,0-0.727c0.263,0,0.511,0,0.774,0     c0,0.247,0,0.487,0,0.726c0.247,0,0.479,0,0.725,0c0-0.247,0-0.487,0-0.726c0.262,0,0.51,0,0.773,0c0,0.747,0,1.486,0,2.235     c0.255,0,0.496,0,0.74,0c0,0.26,0,0.512,0,0.776c-0.251,0-0.495,0-0.734,0c0,0.245,0,0.477,0,0.708c1.485,0,2.962,0,4.442,0     C364.502,245.193,364.502,244.964,364.502,244.715z M367.518,256.622c1.484,0,2.961,0,4.439,0c0-0.237,0-0.465,0-0.709     c-0.245,0-0.485,0-0.729,0c0-0.262,0-0.51,0-0.772c0.248,0,0.488,0,0.74,0c0-0.254,0-0.495,0-0.745c0.253,0,0.493,0,0.735,0     c0-0.245,0-0.48,0-0.724c-0.25,0-0.49,0-0.746,0c0-0.502,0-0.995,0-1.493c-0.197,0-0.379,0.009-0.559-0.003     c-0.128-0.009-0.158,0.037-0.152,0.156c0.009,0.196,0.003,0.392,0.003,0.597c-0.255,0-0.491,0-0.734,0c0,0.244,0,0.479,0,0.723     c0.245,0,0.482,0,0.726,0c0,0.261,0,0.513,0,0.778c-0.246,0-0.486,0-0.737,0c0,0.499,0,0.985,0,1.474c-0.262,0-0.513,0-0.765,0     c0-0.505,0-0.999,0-1.507c0.248,0,0.487,0,0.733,0c0-0.246,0-0.477,0-0.721c-0.247,0-0.487,0-0.742,0c0-0.255,0-0.498,0-0.742     c-0.247,0-0.479,0-0.725,0c0,0.5,0,0.994,0,1.498c-0.504,0-0.994,0-1.487,0c0,0.239,0,0.467,0,0.713c0.498,0,0.99,0,1.482,0     c0,0.266,0,0.513,0,0.774c-0.499,0-0.989,0-1.482,0C367.518,256.161,367.518,256.389,367.518,256.622z M354.828,246.187     c0.993,0,1.981,0,2.985,0c0,0.504,0,0.992,0,1.492c0.256,0,0.496,0,0.746,0c0,0.253,0,0.493,0,0.749c0.503,0,0.996,0,1.498,0     c0,0.255,0,0.496,0,0.738c0.241,0,0.473,0,0.707,0c0-0.491,0-0.976,0-1.473c-0.251,0-0.491,0-0.739,0c0-0.249,0-0.486,0-0.738     c-0.501,0-0.994,0-1.491,0c0-0.263,0-0.511,0-0.774c0.25,0,0.494,0,0.737,0c0-0.244,0-0.472,0-0.714c-0.249,0-0.493,0-0.749,0     c0-0.257,0-0.5,0-0.743c-0.242,0-0.471,0-0.715,0c0,0.249,0,0.492,0,0.737c-0.263,0-0.511,0-0.761,0c0-0.257,0-0.505,0-0.768     c0.245,0,0.485,0,0.725,0c0-0.249,0-0.484,0-0.715c-0.488,0-0.965,0-1.451,0c0,0.5,0,0.991,0,1.494c-0.502,0-0.996,0-1.491,0     C354.828,245.714,354.828,245.943,354.828,246.187z M366.743,261.106c0-0.497,0-0.983,0-1.483c0.252,0,0.492,0,0.733,0     c0-0.746,0-1.477,0-2.212c-0.236,0-0.465,0-0.709,0c0,0.248,0,0.492,0,0.736c-0.264,0-0.512,0-0.761,0c0-0.257,0-0.505,0-0.767     c0.246,0,0.485,0,0.737,0c0-0.503,0-0.993,0-1.495c0.252,0,0.491,0,0.733,0c0-0.244,0-0.475,0-0.718c-0.249,0-0.489,0-0.741,0     c0-0.252,0-0.492,0-0.732c-0.24,0-0.468,0-0.709,0c0,0.742,0,1.478,0,2.226c-0.253,0-0.493,0-0.748,0c0,0.506,0,0.999,0,1.5     c-0.256,0-0.496,0-0.737,0c0,0.244,0,0.479,0,0.726c0.499,0,0.989,0,1.492,0c0,0.748,0,1.483,0,2.22     C366.271,261.106,366.496,261.106,366.743,261.106z M374.245,257.405c0,0.252,0,0.484,0,0.731c0.25,0,0.493,0,0.745,0     c0,0.501,0,0.988,0,1.49c0.248,0,0.488,0,0.729,0c0,0.263,0,0.51,0,0.773c-0.248,0-0.487,0-0.726,0c0,0.494,0,0.972,0,1.45     c0.238,0,0.469,0,0.711,0c0-0.25,0-0.491,0-0.743c0.251,0,0.491,0,0.742,0c0-0.748,0-1.483,0-2.23c0.253,0,0.493,0,0.737,0     c0-0.246,0-0.48,0-0.725c-0.249,0-0.489,0-0.744,0c0-0.253,0-0.496,0-0.747c-0.251,0-0.488,0-0.743,0c0-0.251,0-0.494,0-0.738     c-0.246,0-0.473,0-0.713,0c0,0.248,0,0.488,0,0.739C374.732,257.405,374.492,257.405,374.245,257.405z M354.828,254.426     c0,0.246,0,0.475,0,0.719c0.248,0,0.491,0,0.748,0c0,0.255,0,0.494,0,0.733c0.741,0,1.468,0,2.206,0c0-0.245,0-0.481,0-0.735     c0.254,0,0.496,0,0.735,0c0-0.25,0-0.481,0-0.724c-0.25,0-0.489,0-0.74,0c0-0.502,0-0.991,0-1.486c-0.989,0-1.966,0-2.946,0     c0,0.242,0,0.477,0,0.725c0.252,0,0.495,0,0.735,0c0,0.262,0,0.511,0,0.768C355.319,254.426,355.078,254.426,354.828,254.426z      M376.433,252.153c0-0.248,0-0.479,0-0.71c-0.486,0-0.963,0-1.453,0c0,0.499,0,0.988,0,1.488c-0.254,0-0.494,0-0.748,0     c0,0.254,0,0.497,0,0.749c-0.254,0-0.495,0-0.735,0c0,0.244,0,0.478,0,0.723c0.25,0,0.49,0,0.743,0c0,0.25,0,0.489,0,0.741     c0.193,0,0.373,0,0.554,0c0.164,0,0.164,0,0.164-0.163c0-0.192,0-0.383,0-0.577c0.264,0,0.509,0,0.77,0c0,0.244,0,0.484,0,0.731     c0.246,0,0.476,0,0.705,0c0-0.491,0-0.972,0-1.462c-0.246,0-0.483,0-0.729,0c0-0.51,0-1.011,0-1.521     C375.951,252.153,376.188,252.153,376.433,252.153z M374.206,258.912c-0.74,0-1.471,0-2.207,0c0,0.733,0,1.459,0,2.19     c0.739,0,1.47,0,2.207,0C374.206,260.372,374.206,259.648,374.206,258.912z M370.504,260.389c-0.511,0-1.011,0-1.521,0     c0-0.251,0-0.487,0-0.726c-0.494,0-0.979,0-1.465,0c0,0.484,0,0.958,0,1.439c1.234,0,2.461,0,3.695,0c0-0.482,0-0.959,0-1.441     c-0.238,0-0.468,0-0.709,0C370.504,259.907,370.504,260.143,370.504,260.389z M369.762,244.687c0.489,0,0.967,0,1.45,0     c0-0.984,0-1.962,0-2.943c-0.238,0-0.468,0-0.71,0c0,0.246,0,0.482,0,0.72c-0.262,0-0.513,0-0.775,0c0-0.247,0-0.483,0-0.723     c-0.243,0-0.475,0-0.709,0c0,0.488,0,0.968,0,1.46c0.5,0,0.99,0,1.481,0c0,0.259,0,0.508,0,0.771c-0.25,0-0.493,0-0.737,0     C369.762,244.217,369.762,244.447,369.762,244.687z M360.81,261.888c0,0.742,0,1.474,0,2.217c0.201,0,0.394-0.004,0.586,0.002     c0.094,0.003,0.129-0.023,0.125-0.122c-0.007-0.204-0.002-0.409-0.002-0.619c0.511,0,1.008,0,1.519,0c0,0.249,0,0.489,0,0.73     c0.246,0,0.477,0,0.709,0c0-0.491,0-0.973,0-1.465c-0.744,0-1.481,0-2.234,0c0-0.254,0-0.497,0-0.743     C361.272,261.888,361.047,261.888,360.81,261.888z M365.244,243.941c0-0.732,0-1.461,0-2.197c-0.238,0-0.472,0-0.716,0     c0,0.246,0,0.482,0,0.734c-0.253,0-0.496,0-0.739,0c0,0.497,0,0.978,0,1.463C364.276,243.941,364.755,243.941,365.244,243.941z      M368.975,244.689c0-0.495,0-0.979,0-1.46c-0.242,0-0.474,0-0.717,0c0,0.249,0,0.489,0,0.74c-0.747,0-1.482,0-2.222,0     c0,0.246,0,0.481,0,0.72C367.018,244.689,367.992,244.689,368.975,244.689z M369.724,246.181c0-0.244,0-0.475,0-0.703     c-0.74,0-1.471,0-2.203,0c0,0.485,0,0.962,0,1.442c0.49,0,0.972,0,1.466,0c0-0.246,0-0.486,0-0.738     C369.241,246.181,369.481,246.181,369.724,246.181z M371.965,246.92c0-0.246,0-0.485,0-0.74c0.257,0,0.5,0,0.742,0     c0-0.494,0-0.972,0-1.454c-0.238,0-0.47,0-0.717,0c0,0.249,0,0.492,0,0.747c-0.501,0-0.987,0-1.474,0c0,0.242,0,0.473,0,0.715     c0.246,0,0.483,0,0.735,0c0,0.251,0,0.49,0,0.733C371.495,246.92,371.723,246.92,371.965,246.92z M365.284,241.708     c0.251,0,0.491,0,0.745,0c0,0.253,0,0.492,0,0.732c0.243,0,0.471,0,0.711,0c0-0.493,0-0.978,0-1.477c0.252,0,0.491,0,0.734,0     c0-0.248,0-0.483,0-0.714c-0.487,0-0.964,0-1.452,0c0,0.249,0,0.49,0,0.745c-0.253,0-0.496,0-0.739,0     C365.284,241.236,365.284,241.461,365.284,241.708z M375.695,245.472c0-0.259,0-0.502,0-0.746c-0.244,0-0.471,0-0.713,0     c0,0.25,0,0.493,0,0.747c-0.254,0-0.494,0-0.736,0c0,0.241,0,0.472,0,0.716c0.248,0,0.488,0,0.742,0c0,0.252,0,0.492,0,0.73     c0.243,0,0.471,0,0.715,0c0-0.246,0-0.485,0-0.739c0.255,0,0.494,0,0.732,0c0-0.244,0-0.472,0-0.708     C376.192,245.472,375.956,245.472,375.695,245.472z M369.004,246.964c0,0.248,0,0.488,0,0.739c-0.252,0-0.492,0-0.735,0     c0,0.246,0,0.481,0,0.725c0.25,0,0.49,0,0.744,0c0,0.253,0,0.496,0,0.737c0.246,0,0.478,0,0.714,0c0-0.736,0-1.464,0-2.201     C369.489,246.964,369.258,246.964,369.004,246.964z M368.987,258.875c0-0.253,0-0.493,0-0.748c0.253,0,0.496,0,0.738,0     c0-0.247,0-0.479,0-0.714c-0.49,0-0.971,0-1.454,0c0,0.491,0,0.976,0,1.462C368.51,258.875,368.739,258.875,368.987,258.875z      M363.788,240.953c0.242,0,0.477,0,0.723,0c0-0.249,0-0.489,0-0.741c0.251,0,0.491,0,0.734,0c0-0.247,0-0.481,0-0.715     c-0.491,0-0.973,0-1.457,0C363.788,239.987,363.788,240.468,363.788,240.953z M369.764,250.656c0.491,0,0.968,0,1.446,0     c0-0.24,0-0.471,0-0.711c-0.246,0-0.483,0-0.733,0c0-0.253,0-0.497,0-0.739c-0.246,0-0.478,0-0.712,0     C369.764,249.693,369.764,250.171,369.764,250.656z M371.248,249.171c0,0.227-0.003,0.436,0.003,0.645     c0.001,0.036,0.038,0.1,0.06,0.1c0.212,0.008,0.425,0.005,0.643,0.005c0-0.496,0-0.981,0-1.464c-0.486,0-0.964,0-1.441,0     c0,0.241,0,0.473,0,0.714C370.757,249.171,370.993,249.171,371.248,249.171z M361.517,250.692c0-0.254,0-0.495,0-0.736     c-0.245,0-0.476,0-0.708,0c0,0.486,0,0.963,0,1.442c0.485,0,0.962,0,1.44,0c0-0.238,0-0.469,0-0.707     C362.007,250.692,361.774,250.692,361.517,250.692z M351.85,246.189c0.249,0,0.488,0,0.743,0c0,0.254,0,0.492,0,0.729     c0.244,0,0.471,0,0.701,0c0-0.485,0-0.962,0-1.443c-0.484,0-0.961,0-1.444,0C351.85,245.71,351.85,245.938,351.85,246.189z      M362.255,247.707c-0.241,0-0.469,0-0.696,0c0,0.741,0,1.474,0,2.203c0.239,0,0.466,0,0.696,0     C362.255,249.173,362.255,248.445,362.255,247.707z M370.472,261.893c-0.494,0-0.975,0-1.457,0c0,0.241,0,0.473,0,0.711     c0.487,0,0.969,0,1.457,0C370.472,262.366,370.472,262.134,370.472,261.893z M368.267,240.244c0,0.243,0,0.475,0,0.708     c0.491,0,0.975,0,1.457,0c0-0.242,0-0.474,0-0.708C369.235,240.244,368.756,240.244,368.267,240.244z M355.543,247.67     c0-0.24,0-0.469,0-0.706c-0.489,0-0.973,0-1.46,0c0,0.241,0,0.472,0,0.706C354.572,247.67,355.051,247.67,355.543,247.67z      M357.819,238.745c0,0.494,0,0.978,0,1.464c0.239,0,0.467,0,0.699,0c0-0.491,0-0.975,0-1.464     C358.284,238.745,358.059,238.745,357.819,238.745z M363.748,242.44c0-0.488,0-0.965,0-1.443c-0.239,0-0.471,0-0.708,0     c0,0.483,0,0.959,0,1.443C363.278,242.44,363.509,242.44,363.748,242.44z M367.521,240.995c0,0.49,0,0.966,0,1.446     c0.24,0,0.471,0,0.704,0c0-0.487,0-0.966,0-1.446C367.986,240.995,367.758,240.995,367.521,240.995z M354.041,255.138     c0-0.237,0-0.468,0-0.701c-0.486,0-0.967,0-1.445,0c0,0.238,0,0.466,0,0.701C353.081,255.138,353.558,255.138,354.041,255.138z      M355.54,258.126c0-0.246,0-0.478,0-0.71c-0.243,0-0.478,0-0.71,0c0,0.242,0,0.475,0,0.71     C355.07,258.126,355.302,258.126,355.54,258.126z M372.745,263.351c0.245,0,0.476,0,0.711,0c0-0.242,0-0.476,0-0.711     c-0.241,0-0.473,0-0.711,0C372.745,262.877,372.745,263.109,372.745,263.351z M374.203,245.435c0-0.247,0-0.479,0-0.709     c-0.242,0-0.474,0-0.708,0c0,0.239,0,0.471,0,0.709C373.733,245.435,373.965,245.435,374.203,245.435z M360.024,243.978     c-0.247,0-0.482,0-0.715,0c0,0.241,0,0.474,0,0.707c0.242,0,0.477,0,0.715,0C360.024,244.446,360.024,244.217,360.024,243.978z      M373.461,257.415c-0.247,0-0.482,0-0.715,0c0,0.242,0,0.474,0,0.706c0.243,0,0.478,0,0.715,0     C373.461,257.883,373.461,257.653,373.461,257.415z M355.544,243.979c-0.237,0-0.475,0-0.711,0c0,0.241,0,0.476,0,0.707     c0.242,0,0.474,0,0.711,0C355.544,244.448,355.544,244.219,355.544,243.979z M360.017,258.127c0-0.238,0-0.476,0-0.715     c-0.24,0-0.472,0-0.707,0c0,0.242,0,0.477,0,0.715C359.548,258.127,359.777,258.127,360.017,258.127z M359.274,243.232     c-0.246,0-0.48,0-0.712,0c0,0.242,0,0.474,0,0.703c0.243,0,0.477,0,0.712,0C359.274,243.696,359.274,243.467,359.274,243.232z      M372.747,252.93c0,0.246,0,0.481,0,0.715c0.241,0,0.474,0,0.707,0c0-0.242,0-0.477,0-0.715     C373.217,252.93,372.988,252.93,372.747,252.93z M374.202,257.375c0-0.246,0-0.478,0-0.708c-0.242,0-0.474,0-0.707,0     c0,0.241,0,0.473,0,0.708C373.734,257.375,373.966,257.375,374.202,257.375z M352.551,254.394c0-0.241,0-0.476,0-0.707     c-0.24,0-0.471,0-0.698,0c0,0.242,0,0.473,0,0.707C352.089,254.394,352.317,254.394,352.551,254.394z M365.288,254.391     c0.238,0,0.468,0,0.704,0c0-0.241,0-0.473,0-0.707c-0.239,0-0.471,0-0.704,0C365.288,253.924,365.288,254.156,365.288,254.391z      M354.79,245.441c0-0.246,0-0.481,0-0.715c-0.24,0-0.472,0-0.715,0c0,0.219-0.002,0.432,0.003,0.644     c0,0.024,0.037,0.067,0.058,0.067C354.352,245.443,354.569,245.441,354.79,245.441z M364.535,256.624c0.243,0,0.475,0,0.713,0     c0-0.234,0-0.462,0-0.7c-0.238,0-0.473,0-0.713,0C364.535,256.157,364.535,256.386,364.535,256.624z M360.807,247.664     c0.242,0,0.473,0,0.713,0c0-0.218,0.002-0.427-0.003-0.636c-0.001-0.024-0.036-0.069-0.057-0.069     c-0.216-0.005-0.433-0.003-0.653-0.003C360.807,247.199,360.807,247.428,360.807,247.664z M362.288,249.953     c0,0.22-0.002,0.429,0.003,0.638c0.001,0.025,0.035,0.07,0.055,0.071c0.216,0.005,0.433,0.003,0.652,0.003     c0-0.245,0-0.476,0-0.711C362.763,249.953,362.534,249.953,362.288,249.953z M372.744,256.622c0.243,0,0.478,0,0.715,0     c0-0.236,0-0.464,0-0.7c-0.239,0-0.474,0-0.715,0C372.744,256.157,372.744,256.384,372.744,256.622z M374.244,256.622     c0.241,0,0.472,0,0.714,0c0-0.216,0.002-0.425-0.003-0.634c-0.001-0.025-0.043-0.07-0.068-0.071     c-0.213-0.006-0.425-0.003-0.644-0.003C374.244,256.156,374.244,256.384,374.244,256.622z M372.704,257.375     c0-0.24,0-0.475,0-0.707c-0.24,0-0.471,0-0.705,0c0,0.241,0,0.472,0,0.707C372.239,257.375,372.47,257.375,372.704,257.375z      M367.476,247.668c0-0.241,0-0.472,0-0.713c-0.217,0-0.426-0.002-0.634,0.003c-0.025,0.001-0.069,0.036-0.069,0.057     c-0.005,0.216-0.003,0.433-0.003,0.654C367.011,247.668,367.239,247.668,367.476,247.668z M363.042,238.748     c0,0.247,0,0.479,0,0.711c0.241,0,0.473,0,0.704,0c0-0.242,0-0.477,0-0.711C363.507,238.748,363.279,238.748,363.042,238.748z      M372.743,249.953c0,0.239,0,0.467,0,0.703c0.239,0,0.474,0,0.714,0c0-0.236,0-0.467,0-0.703     C373.219,249.953,372.987,249.953,372.743,249.953z M365.993,261.147c-0.245,0-0.476,0-0.704,0c0,0.242,0,0.473,0,0.703     c0.239,0,0.47,0,0.704,0C365.993,261.613,365.993,261.385,365.993,261.147z M367.478,242.475c-0.218,0-0.431-0.002-0.643,0.002     c-0.022,0-0.062,0.033-0.063,0.051c-0.004,0.22-0.003,0.44-0.003,0.656c0.249,0,0.48,0,0.709,0     C367.478,242.946,367.478,242.717,367.478,242.475z M358.517,243.191c0-0.235,0-0.469,0-0.716c-0.216,0-0.429-0.002-0.642,0.002     c-0.022,0-0.062,0.033-0.062,0.052c-0.004,0.22-0.003,0.439-0.003,0.662C358.055,243.191,358.281,243.191,358.517,243.191z      M365.289,238.748c0,0.242,0,0.476,0,0.709c0.239,0,0.47,0,0.702,0c0-0.24,0-0.471,0-0.709     C365.756,238.748,365.528,238.748,365.289,238.748z M362.289,240.245c0,0.223-0.002,0.435,0.002,0.647     c0,0.023,0.031,0.065,0.049,0.065c0.219,0.005,0.439,0.003,0.659,0.003c0-0.248,0-0.479,0-0.716     C362.764,240.245,362.535,240.245,362.289,240.245z M365.999,244.726c-0.247,0-0.478,0-0.712,0c0,0.239,0,0.471,0,0.715     c0.218,0,0.431,0.002,0.643-0.003c0.024-0.001,0.065-0.047,0.066-0.073C366.001,245.156,365.999,244.947,365.999,244.726z      M357.809,258.91c0,0.221-0.002,0.43,0.003,0.639c0.001,0.025,0.036,0.071,0.056,0.071c0.216,0.005,0.433,0.003,0.652,0.003     c0-0.246,0-0.478,0-0.714C358.284,258.91,358.055,258.91,357.809,258.91z M369.765,241.696c0.241,0,0.472,0,0.707,0     c0-0.238,0-0.465,0-0.699c-0.238,0-0.47,0-0.707,0C369.765,241.231,369.765,241.459,369.765,241.696z M374.243,247.664     c0.244,0,0.475,0,0.715,0c0-0.217,0.002-0.426-0.003-0.634c-0.001-0.025-0.035-0.071-0.054-0.071     c-0.219-0.005-0.438-0.003-0.658-0.003C374.243,247.203,374.243,247.431,374.243,247.664z M365.288,251.435     c0,0.244,0,0.476,0,0.709c0.238,0,0.469,0,0.711,0c0-0.22,0.002-0.433-0.003-0.646c0-0.022-0.042-0.06-0.065-0.061     C365.718,251.433,365.505,251.435,365.288,251.435z M372.747,246.961c0,0.244,0,0.475,0,0.706c0.241,0,0.473,0,0.71,0     c0-0.237,0-0.468,0-0.706C373.22,246.961,372.988,246.961,372.747,246.961z M370.516,246.96c0,0.243,0,0.475,0,0.706     c0.237,0,0.466,0,0.694,0c0-0.238,0-0.469,0-0.706C370.975,246.96,370.75,246.96,370.516,246.96z M366.035,252.895     c0.239,0,0.467,0,0.698,0c0-0.239,0-0.471,0-0.709c-0.235,0-0.462,0-0.698,0C366.035,252.423,366.035,252.655,366.035,252.895z      M371.259,257.409c0,0.245,0,0.48,0,0.715c0.238,0,0.466,0,0.696,0c0-0.242,0-0.477,0-0.715     C371.721,257.409,371.497,257.409,371.259,257.409z M362.252,261.856c0-0.243,0-0.474,0-0.711c-0.235,0-0.463,0-0.695,0     c0,0.241,0,0.475,0,0.711C361.792,261.856,362.017,261.856,362.252,261.856z M353.29,253.646c0-0.245,0-0.48,0-0.71     c-0.239,0-0.466,0-0.696,0c0,0.24,0,0.472,0,0.71C352.829,253.646,353.057,253.646,353.29,253.646z M352.592,244.688     c0.24,0,0.467,0,0.701,0c0-0.241,0-0.475,0-0.71c-0.238,0-0.469,0-0.701,0C352.592,244.217,352.592,244.446,352.592,244.688z      M357.077,251.44c0,0.242,0,0.473,0,0.705c0.237,0,0.465,0,0.694,0c0-0.238,0-0.469,0-0.705     C357.538,251.44,357.314,251.44,357.077,251.44z M374.205,246.221c-0.243,0-0.475,0-0.709,0c0,0.238,0,0.468,0,0.699     c0.24,0,0.471,0,0.709,0C374.205,246.686,374.205,246.459,374.205,246.221z M374.206,255.18c-0.245,0-0.477,0-0.709,0     c0,0.238,0,0.469,0,0.698c0.24,0,0.472,0,0.709,0C374.206,255.643,374.206,255.416,374.206,255.18z M372.707,250.705     c-0.24,0-0.474,0-0.705,0c0,0.239,0,0.466,0,0.692c0.242,0,0.473,0,0.705,0C372.707,251.161,372.707,250.933,372.707,250.705z      M372.71,255.181c-0.243,0-0.474,0-0.712,0c0,0.235,0,0.462,0,0.695c0.241,0,0.475,0,0.712,0     C372.71,255.641,372.71,255.416,372.71,255.181z" />
			<svg:path d="M355.545,259.635c0,1.74,0,3.47,0,5.21c-1.739,0-3.475,0-5.218,0c0-1.735,0-3.467,0-5.21     C352.063,259.635,353.798,259.635,355.545,259.635z M351.077,260.381c0,1.241,0,2.476,0,3.715c1.242,0,2.478,0,3.712,0     c0-1.244,0-2.479,0-3.715C353.548,260.381,352.316,260.381,351.077,260.381z" />
			<svg:path d="M350.326,237.233c1.739,0,3.476,0,5.218,0c0,1.739,0,3.472,0,5.213c-1.741,0-3.476,0-5.218,0     C350.326,240.707,350.326,238.974,350.326,237.233z M351.075,237.981c0,1.244,0,2.477,0,3.718c1.24,0,2.476,0,3.717,0     c0-1.241,0-2.476,0-3.718C353.552,237.981,352.319,237.981,351.075,237.981z" />
			<svg:path d="M372.717,242.444c0-1.741,0-3.47,0-5.21c1.739,0,3.475,0,5.218,0c0,1.735,0,3.467,0,5.21     C376.199,242.444,374.463,242.444,372.717,242.444z M377.184,241.698c0-1.242,0-2.477,0-3.715c-1.243,0-2.478,0-3.716,0     c0,1.242,0,2.475,0,3.715C374.709,241.698,375.945,241.698,377.184,241.698z" />
			<svg:path d="M356.299,261.116c0.26,0,0.508,0,0.764,0c0,0.754,0,1.502,0,2.259c-0.255,0-0.506,0-0.764,0     C356.299,262.623,356.299,261.875,356.299,261.116z" />
			<svg:path d="M370.486,238.737c0-0.26,0-0.508,0-0.767c0.243,0,0.479,0,0.73,0c0-0.25,0-0.489,0-0.737c0.263,0,0.511,0,0.767,0     c0,0.251,0,0.499,0,0.762c-0.203,0-0.404,0.007-0.604-0.003c-0.111-0.005-0.137,0.035-0.133,0.138     c0.007,0.201,0.002,0.402,0.002,0.606C370.988,238.737,370.743,238.737,370.486,238.737z" />
			<svg:path d="M363.027,259.647c-0.257,0-0.503,0-0.759,0c0-0.502,0-1.003,0-1.51c0.254,0,0.502,0,0.759,0     C363.027,258.639,363.027,259.137,363.027,259.647z" />
			<svg:path d="M369.755,264.114c0,0.253,0,0.498,0,0.751c-0.253,0-0.504,0-0.763,0c0-0.248,0-0.495,0-0.751     C369.243,264.114,369.493,264.114,369.755,264.114z" />
			<svg:path style="fill:#FFFFFF;" d="M364.502,244.715c0,0.25,0,0.479,0,0.717c-1.48,0-2.956,0-4.442,0c0-0.231,0-0.463,0-0.708     c0.24,0,0.483,0,0.734,0c0-0.265,0-0.516,0-0.776c-0.244,0-0.485,0-0.74,0c0-0.748,0-1.488,0-2.235c-0.263,0-0.511,0-0.773,0     c0,0.239,0,0.479,0,0.726c-0.245,0-0.477,0-0.725,0c0-0.239,0-0.479,0-0.726c-0.263,0-0.511,0-0.774,0c0,0.242,0,0.482,0,0.727     c-0.243,0-0.471,0-0.707,0c0-0.482,0-0.959,0-1.443c1.23,0,2.458,0,3.699,0c0,0.491,0,0.977,0,1.47c0.261,0,0.509,0,0.768,0     c0-0.239,0-0.476,0-0.723c0.242,0,0.472,0,0.715,0c0,0.238,0,0.474,0,0.725c0.251,0,0.49,0,0.739,0c0,0.246,0,0.477,0,0.72     c-0.485,0-0.971,0-1.467,0c0,0.262,0,0.513,0,0.778c0.239,0,0.479,0,0.73,0c0,0.254,0,0.494,0,0.747     C363.01,244.715,363.75,244.715,364.502,244.715z" />
			<svg:path style="fill:#FFFFFF;" d="M367.518,256.622c0-0.233,0-0.461,0-0.702c0.493,0,0.983,0,1.482,0c0-0.261,0-0.508,0-0.774     c-0.491,0-0.984,0-1.482,0c0-0.246,0-0.474,0-0.713c0.493,0,0.983,0,1.487,0c0-0.504,0-0.998,0-1.498c0.245,0,0.477,0,0.725,0     c0,0.244,0,0.487,0,0.742c0.255,0,0.495,0,0.742,0c0,0.244,0,0.475,0,0.721c-0.245,0-0.485,0-0.733,0c0,0.508,0,1.002,0,1.507     c0.252,0,0.503,0,0.765,0c0-0.489,0-0.975,0-1.474c0.251,0,0.491,0,0.737,0c0-0.265,0-0.517,0-0.778c-0.244,0-0.481,0-0.726,0     c0-0.243,0-0.478,0-0.723c0.242,0,0.479,0,0.734,0c0-0.205,0.007-0.401-0.003-0.597c-0.006-0.119,0.024-0.165,0.152-0.156     c0.18,0.012,0.362,0.003,0.559,0.003c0,0.498,0,0.991,0,1.493c0.256,0,0.496,0,0.746,0c0,0.244,0,0.479,0,0.724     c-0.242,0-0.483,0-0.735,0c0,0.25,0,0.49,0,0.745c-0.252,0-0.492,0-0.74,0c0,0.262,0,0.51,0,0.772c0.244,0,0.484,0,0.729,0     c0,0.243,0,0.472,0,0.709C370.479,256.622,369.002,256.622,367.518,256.622z" />
			<svg:path style="fill:#FFFFFF;" d="M354.828,246.187c0-0.244,0-0.473,0-0.714c0.495,0,0.989,0,1.491,0c0-0.504,0-0.994,0-1.494     c0.486,0,0.964,0,1.451,0c0,0.231,0,0.466,0,0.715c-0.24,0-0.479,0-0.725,0c0,0.263,0,0.512,0,0.768c0.25,0,0.498,0,0.761,0     c0-0.245,0-0.488,0-0.737c0.244,0,0.473,0,0.715,0c0,0.243,0,0.486,0,0.743c0.256,0,0.5,0,0.749,0c0,0.242,0,0.47,0,0.714     c-0.243,0-0.487,0-0.737,0c0,0.263,0,0.511,0,0.774c0.497,0,0.99,0,1.491,0c0,0.252,0,0.489,0,0.738c0.248,0,0.488,0,0.739,0     c0,0.497,0,0.981,0,1.473c-0.234,0-0.466,0-0.707,0c0-0.243,0-0.483,0-0.738c-0.502,0-0.995,0-1.498,0c0-0.255,0-0.496,0-0.749     c-0.249,0-0.489,0-0.746,0c0-0.5,0-0.988,0-1.492C356.809,246.187,355.821,246.187,354.828,246.187z" />
			<svg:path style="fill:#FFFFFF;" d="M366.743,261.106c-0.247,0-0.472,0-0.71,0c0-0.737,0-1.473,0-2.22c-0.503,0-0.993,0-1.492,0     c0-0.247,0-0.482,0-0.726c0.241,0,0.481,0,0.737,0c0-0.502,0-0.995,0-1.5c0.255,0,0.495,0,0.748,0c0-0.748,0-1.484,0-2.226     c0.241,0,0.469,0,0.709,0c0,0.24,0,0.48,0,0.732c0.252,0,0.492,0,0.741,0c0,0.243,0,0.474,0,0.718c-0.241,0-0.481,0-0.733,0     c0,0.502,0,0.992,0,1.495c-0.251,0-0.491,0-0.737,0c0,0.262,0,0.511,0,0.767c0.249,0,0.497,0,0.761,0c0-0.244,0-0.488,0-0.736     c0.245,0,0.473,0,0.709,0c0,0.735,0,1.466,0,2.212c-0.241,0-0.481,0-0.733,0C366.743,260.122,366.743,260.608,366.743,261.106z" />
			<svg:path style="fill:#FFFFFF;" d="M374.245,257.405c0.246,0,0.487,0,0.739,0c0-0.251,0-0.491,0-0.739c0.24,0,0.467,0,0.713,0     c0,0.244,0,0.487,0,0.738c0.255,0,0.492,0,0.743,0c0,0.251,0,0.495,0,0.747c0.255,0,0.495,0,0.744,0c0,0.245,0,0.479,0,0.725     c-0.244,0-0.484,0-0.737,0c0,0.746,0,1.482,0,2.23c-0.252,0-0.492,0-0.742,0c0,0.253,0,0.493,0,0.743c-0.242,0-0.473,0-0.711,0     c0-0.478,0-0.956,0-1.45c0.238,0,0.477,0,0.726,0c0-0.263,0-0.511,0-0.773c-0.241,0-0.481,0-0.729,0c0-0.502,0-0.988,0-1.49     c-0.252,0-0.495,0-0.745,0C374.245,257.889,374.245,257.657,374.245,257.405z" />
			<svg:path style="fill:#FFFFFF;" d="M354.828,254.426c0.251,0,0.491,0,0.738,0c0-0.257,0-0.506,0-0.768c-0.24,0-0.483,0-0.735,0     c0-0.248,0-0.483,0-0.725c0.98,0,1.957,0,2.946,0c0,0.494,0,0.984,0,1.486c0.25,0,0.49,0,0.74,0c0,0.243,0,0.474,0,0.724     c-0.238,0-0.481,0-0.735,0c0,0.254,0,0.49,0,0.735c-0.738,0-1.466,0-2.206,0c0-0.238,0-0.478,0-0.733c-0.257,0-0.5,0-0.748,0     C354.828,254.901,354.828,254.672,354.828,254.426z M357.065,253.66c-0.264,0-0.512,0-0.764,0c0,0.505,0,1.003,0,1.503     c0.261,0,0.511,0,0.764,0C357.065,254.658,357.065,254.163,357.065,253.66z" />
			<svg:path style="fill:#FFFFFF;" d="M376.433,252.153c-0.245,0-0.482,0-0.729,0c0,0.51,0,1.011,0,1.521c0.246,0,0.483,0,0.729,0     c0,0.49,0,0.971,0,1.462c-0.229,0-0.459,0-0.705,0c0-0.247,0-0.487,0-0.731c-0.26,0-0.505,0-0.77,0c0,0.194,0,0.386,0,0.577     c0,0.163,0,0.163-0.164,0.163c-0.181,0-0.361,0-0.554,0c0-0.251,0-0.491,0-0.741c-0.252,0-0.492,0-0.743,0     c0-0.245,0-0.479,0-0.723c0.24,0,0.481,0,0.735,0c0-0.252,0-0.495,0-0.749c0.253,0,0.494,0,0.748,0c0-0.5,0-0.99,0-1.488     c0.491,0,0.967,0,1.453,0C376.433,251.675,376.433,251.906,376.433,252.153z" />
			<svg:path style="fill:#FFFFFF;" d="M374.206,258.912c0,0.736,0,1.46,0,2.19c-0.737,0-1.469,0-2.207,0c0-0.731,0-1.457,0-2.19     C372.735,258.912,373.466,258.912,374.206,258.912z M372.72,260.385c0.257,0,0.508,0,0.759,0c0-0.257,0-0.505,0-0.753     c-0.257,0-0.505,0-0.759,0C372.72,259.886,372.72,260.134,372.72,260.385z" />
			<svg:path style="fill:#FFFFFF;" d="M370.504,260.389c0-0.245,0-0.482,0-0.727c0.241,0,0.472,0,0.709,0c0,0.481,0,0.958,0,1.441     c-1.234,0-2.461,0-3.695,0c0-0.481,0-0.955,0-1.439c0.486,0,0.97,0,1.465,0c0,0.238,0,0.475,0,0.726     C369.493,260.389,369.993,260.389,370.504,260.389z" />
			<svg:path style="fill:#FFFFFF;" d="M369.762,244.687c0-0.24,0-0.47,0-0.714c0.244,0,0.487,0,0.737,0c0-0.263,0-0.512,0-0.771     c-0.491,0-0.981,0-1.481,0c0-0.492,0-0.973,0-1.46c0.234,0,0.466,0,0.709,0c0,0.24,0,0.477,0,0.723c0.262,0,0.513,0,0.775,0     c0-0.238,0-0.474,0-0.72c0.242,0,0.472,0,0.71,0c0,0.981,0,1.958,0,2.943C370.729,244.687,370.252,244.687,369.762,244.687z" />
			<svg:path style="fill:#FFFFFF;" d="M360.81,261.888c0.237,0,0.462,0,0.704,0c0,0.246,0,0.489,0,0.743c0.753,0,1.489,0,2.234,0     c0,0.493,0,0.975,0,1.465c-0.232,0-0.463,0-0.709,0c0-0.242,0-0.481,0-0.73c-0.511,0-1.008,0-1.519,0     c0,0.21-0.005,0.415,0.002,0.619c0.003,0.099-0.032,0.125-0.125,0.122c-0.193-0.006-0.386-0.002-0.586-0.002     C360.81,263.362,360.81,262.63,360.81,261.888z" />
			<svg:path style="fill:#FFFFFF;" d="M365.244,243.941c-0.489,0-0.968,0-1.455,0c0-0.485,0-0.967,0-1.463c0.242,0,0.486,0,0.739,0     c0-0.251,0-0.488,0-0.734c0.244,0,0.478,0,0.716,0C365.244,242.479,365.244,243.209,365.244,243.941z" />
			<svg:path style="fill:#FFFFFF;" d="M368.975,244.689c-0.982,0-1.956,0-2.939,0c0-0.239,0-0.474,0-0.72c0.74,0,1.476,0,2.222,0     c0-0.251,0-0.491,0-0.74c0.243,0,0.475,0,0.717,0C368.975,243.71,368.975,244.195,368.975,244.689z" />
			<svg:path style="fill:#FFFFFF;" d="M369.724,246.181c-0.243,0-0.483,0-0.737,0c0,0.252,0,0.492,0,0.738c-0.495,0-0.976,0-1.466,0     c0-0.48,0-0.956,0-1.442c0.732,0,1.463,0,2.203,0C369.724,245.707,369.724,245.937,369.724,246.181z" />
			<svg:path style="fill:#FFFFFF;" d="M371.965,246.92c-0.242,0-0.47,0-0.714,0c0-0.243,0-0.482,0-0.733c-0.252,0-0.489,0-0.735,0     c0-0.242,0-0.473,0-0.715c0.487,0,0.973,0,1.474,0c0-0.254,0-0.497,0-0.747c0.247,0,0.478,0,0.717,0c0,0.482,0,0.96,0,1.454     c-0.242,0-0.485,0-0.742,0C371.965,246.435,371.965,246.675,371.965,246.92z" />
			<svg:path style="fill:#FFFFFF;" d="M365.284,241.708c0-0.247,0-0.472,0-0.713c0.243,0,0.486,0,0.739,0c0-0.256,0-0.496,0-0.745     c0.488,0,0.965,0,1.452,0c0,0.231,0,0.465,0,0.714c-0.243,0-0.482,0-0.734,0c0,0.499,0,0.984,0,1.477c-0.24,0-0.468,0-0.711,0     c0-0.24,0-0.479,0-0.732C365.775,241.708,365.535,241.708,365.284,241.708z" />
			<svg:path style="fill:#FFFFFF;" d="M375.695,245.472c0.26,0,0.497,0,0.74,0c0,0.236,0,0.464,0,0.708c-0.238,0-0.477,0-0.732,0     c0,0.254,0,0.493,0,0.739c-0.244,0-0.472,0-0.715,0c0-0.239,0-0.478,0-0.73c-0.254,0-0.494,0-0.742,0c0-0.244,0-0.475,0-0.716     c0.242,0,0.482,0,0.736,0c0-0.253,0-0.497,0-0.747c0.242,0,0.47,0,0.713,0C375.695,244.969,375.695,245.212,375.695,245.472z" />
			<svg:path style="fill:#FFFFFF;" d="M369.004,246.964c0.253,0,0.485,0,0.723,0c0,0.737,0,1.465,0,2.201c-0.236,0-0.468,0-0.714,0     c0-0.241,0-0.485,0-0.737c-0.254,0-0.494,0-0.744,0c0-0.244,0-0.479,0-0.725c0.243,0,0.484,0,0.735,0     C369.004,247.452,369.004,247.212,369.004,246.964z" />
			<svg:path style="fill:#FFFFFF;" d="M368.987,258.875c-0.248,0-0.477,0-0.717,0c0-0.486,0-0.971,0-1.462c0.483,0,0.965,0,1.454,0     c0,0.236,0,0.467,0,0.714c-0.241,0-0.484,0-0.738,0C368.987,258.382,368.987,258.622,368.987,258.875z" />
			<svg:path style="fill:#FFFFFF;" d="M363.788,240.953c0-0.485,0-0.966,0-1.456c0.484,0,0.966,0,1.457,0c0,0.233,0,0.468,0,0.715     c-0.244,0-0.483,0-0.734,0c0,0.251,0,0.492,0,0.741C364.264,240.953,364.029,240.953,363.788,240.953z" />
			<svg:path style="fill:#FFFFFF;" d="M369.764,250.656c0-0.485,0-0.964,0-1.45c0.234,0,0.466,0,0.712,0c0,0.242,0,0.486,0,0.739     c0.251,0,0.487,0,0.733,0c0,0.24,0,0.471,0,0.711C370.732,250.656,370.255,250.656,369.764,250.656z" />
			<svg:path style="fill:#FFFFFF;" d="M371.248,249.171c-0.255,0-0.492,0-0.735,0c0-0.241,0-0.473,0-0.714c0.478,0,0.955,0,1.441,0     c0,0.483,0,0.968,0,1.464c-0.218,0-0.431,0.003-0.643-0.005c-0.022-0.001-0.059-0.065-0.06-0.1     C371.246,249.606,371.248,249.397,371.248,249.171z" />
			<svg:path style="fill:#FFFFFF;" d="M361.517,250.692c0.256,0,0.489,0,0.733,0c0,0.238,0,0.469,0,0.707c-0.478,0-0.956,0-1.44,0     c0-0.479,0-0.957,0-1.442c0.231,0,0.463,0,0.708,0C361.517,250.197,361.517,250.438,361.517,250.692z" />
			<svg:path style="fill:#FFFFFF;" d="M351.85,246.189c0-0.251,0-0.479,0-0.714c0.483,0,0.96,0,1.444,0c0,0.481,0,0.958,0,1.443     c-0.23,0-0.457,0-0.701,0c0-0.237,0-0.476,0-0.729C352.338,246.189,352.099,246.189,351.85,246.189z" />
			<svg:path style="fill:#FFFFFF;" d="M362.255,247.707c0,0.738,0,1.465,0,2.203c-0.23,0-0.457,0-0.696,0c0-0.729,0-1.462,0-2.203     C361.787,247.707,362.014,247.707,362.255,247.707z" />
			<svg:path style="fill:#FFFFFF;" d="M370.472,261.893c0,0.241,0,0.473,0,0.711c-0.488,0-0.97,0-1.457,0c0-0.238,0-0.47,0-0.711     C369.497,261.893,369.978,261.893,370.472,261.893z" />
			<svg:path style="fill:#FFFFFF;" d="M368.267,240.244c0.49,0,0.969,0,1.457,0c0,0.234,0,0.466,0,0.708c-0.481,0-0.965,0-1.457,0     C368.267,240.718,368.267,240.487,368.267,240.244z" />
			<svg:path style="fill:#FFFFFF;" d="M355.543,247.67c-0.492,0-0.971,0-1.46,0c0-0.234,0-0.465,0-0.706c0.486,0,0.971,0,1.46,0     C355.543,247.201,355.543,247.429,355.543,247.67z" />
			<svg:path style="fill:#FFFFFF;" d="M357.819,238.745c0.24,0,0.465,0,0.699,0c0,0.488,0,0.973,0,1.464c-0.232,0-0.46,0-0.699,0     C357.819,239.724,357.819,239.24,357.819,238.745z" />
			<svg:path style="fill:#FFFFFF;" d="M363.748,242.44c-0.239,0-0.47,0-0.708,0c0-0.483,0-0.96,0-1.443c0.237,0,0.469,0,0.708,0     C363.748,241.475,363.748,241.952,363.748,242.44z" />
			<svg:path style="fill:#FFFFFF;" d="M367.521,240.995c0.237,0,0.466,0,0.704,0c0,0.479,0,0.959,0,1.446c-0.233,0-0.464,0-0.704,0     C367.521,241.961,367.521,241.485,367.521,240.995z" />
			<svg:path style="fill:#FFFFFF;" d="M354.041,255.138c-0.484,0-0.96,0-1.445,0c0-0.235,0-0.463,0-0.701c0.479,0,0.959,0,1.445,0     C354.041,254.67,354.041,254.901,354.041,255.138z" />
			<svg:path style="fill:#FFFFFF;" d="M355.54,258.126c-0.238,0-0.47,0-0.71,0c0-0.236,0-0.468,0-0.71c0.232,0,0.467,0,0.71,0     C355.54,257.647,355.54,257.88,355.54,258.126z" />
			<svg:path style="fill:#FFFFFF;" d="M372.745,263.351c0-0.242,0-0.474,0-0.711c0.238,0,0.47,0,0.711,0c0,0.235,0,0.47,0,0.711     C373.221,263.351,372.989,263.351,372.745,263.351z" />
			<svg:path style="fill:#FFFFFF;" d="M374.203,245.435c-0.238,0-0.47,0-0.708,0c0-0.238,0-0.47,0-0.709c0.234,0,0.467,0,0.708,0     C374.203,244.957,374.203,245.189,374.203,245.435z" />
			<svg:path style="fill:#FFFFFF;" d="M360.024,243.978c0,0.239,0,0.468,0,0.707c-0.238,0-0.473,0-0.715,0c0-0.233,0-0.465,0-0.707     C359.542,243.978,359.778,243.978,360.024,243.978z" />
			<svg:path style="fill:#FFFFFF;" d="M373.461,257.415c0,0.238,0,0.467,0,0.706c-0.236,0-0.472,0-0.715,0c0-0.232,0-0.464,0-0.706     C372.979,257.415,373.214,257.415,373.461,257.415z" />
			<svg:path style="fill:#FFFFFF;" d="M355.544,243.979c0,0.24,0,0.469,0,0.707c-0.236,0-0.469,0-0.711,0c0-0.231,0-0.466,0-0.707     C355.069,243.979,355.307,243.979,355.544,243.979z" />
			<svg:path style="fill:#FFFFFF;" d="M360.017,258.127c-0.239,0-0.469,0-0.707,0c0-0.239,0-0.474,0-0.715c0.235,0,0.467,0,0.707,0     C360.017,257.651,360.017,257.889,360.017,258.127z" />
			<svg:path style="fill:#FFFFFF;" d="M359.274,243.232c0,0.236,0,0.464,0,0.703c-0.234,0-0.469,0-0.712,0c0-0.229,0-0.461,0-0.703     C358.793,243.232,359.027,243.232,359.274,243.232z" />
			<svg:path style="fill:#FFFFFF;" d="M372.747,252.93c0.24,0,0.47,0,0.707,0c0,0.238,0,0.473,0,0.715c-0.234,0-0.466,0-0.707,0     C372.747,253.411,372.747,253.176,372.747,252.93z" />
			<svg:path style="fill:#FFFFFF;" d="M374.202,257.375c-0.235,0-0.468,0-0.707,0c0-0.236,0-0.468,0-0.708c0.233,0,0.465,0,0.707,0     C374.202,256.897,374.202,257.129,374.202,257.375z" />
			<svg:path style="fill:#FFFFFF;" d="M352.551,254.394c-0.234,0-0.462,0-0.698,0c0-0.234,0-0.466,0-0.707c0.226,0,0.457,0,0.698,0     C352.551,253.918,352.551,254.153,352.551,254.394z" />
			<svg:path style="fill:#FFFFFF;" d="M365.288,254.391c0-0.235,0-0.467,0-0.707c0.233,0,0.464,0,0.704,0c0,0.234,0,0.465,0,0.707     C365.756,254.391,365.525,254.391,365.288,254.391z" />
			<svg:path style="fill:#FFFFFF;" d="M354.79,245.441c-0.221,0-0.438,0.002-0.654-0.003c-0.021,0-0.058-0.043-0.058-0.067     c-0.005-0.212-0.003-0.425-0.003-0.644c0.243,0,0.475,0,0.715,0C354.79,244.96,354.79,245.195,354.79,245.441z" />
			<svg:path style="fill:#FFFFFF;" d="M364.535,256.624c0-0.238,0-0.466,0-0.7c0.24,0,0.474,0,0.713,0c0,0.238,0,0.466,0,0.7     C365.01,256.624,364.778,256.624,364.535,256.624z" />
			<svg:path style="fill:#FFFFFF;" d="M360.807,247.664c0-0.236,0-0.465,0-0.708c0.221,0,0.437-0.002,0.653,0.003     c0.02,0,0.056,0.045,0.057,0.069c0.005,0.209,0.003,0.418,0.003,0.636C361.28,247.664,361.049,247.664,360.807,247.664z" />
			<svg:path style="fill:#FFFFFF;" d="M362.288,249.953c0.246,0,0.474,0,0.71,0c0,0.236,0,0.467,0,0.711     c-0.22,0-0.436,0.002-0.652-0.003c-0.02,0-0.054-0.046-0.055-0.071C362.287,250.382,362.288,250.173,362.288,249.953z" />
			<svg:path style="fill:#FFFFFF;" d="M372.744,256.622c0-0.238,0-0.465,0-0.7c0.241,0,0.476,0,0.715,0c0,0.236,0,0.464,0,0.7     C373.222,256.622,372.988,256.622,372.744,256.622z" />
			<svg:path style="fill:#FFFFFF;" d="M374.244,256.622c0-0.238,0-0.467,0-0.708c0.218,0,0.431-0.002,0.644,0.003     c0.024,0.001,0.067,0.046,0.068,0.071c0.005,0.209,0.003,0.417,0.003,0.634C374.716,256.622,374.484,256.622,374.244,256.622z" />
			<svg:path style="fill:#FFFFFF;" d="M372.704,257.375c-0.234,0-0.465,0-0.705,0c0-0.235,0-0.466,0-0.707c0.233,0,0.464,0,0.705,0     C372.704,256.9,372.704,257.134,372.704,257.375z" />
			<svg:path style="fill:#FFFFFF;" d="M367.476,247.668c-0.237,0-0.465,0-0.707,0c0-0.221-0.002-0.438,0.003-0.654     c0-0.02,0.045-0.056,0.069-0.057c0.209-0.005,0.417-0.003,0.634-0.003C367.476,247.195,367.476,247.426,367.476,247.668z" />
			<svg:path style="fill:#FFFFFF;" d="M363.042,238.748c0.237,0,0.466,0,0.704,0c0,0.234,0,0.469,0,0.711c-0.232,0-0.464,0-0.704,0     C363.042,239.227,363.042,238.995,363.042,238.748z" />
			<svg:path style="fill:#FFFFFF;" d="M372.743,249.953c0.244,0,0.476,0,0.714,0c0,0.236,0,0.467,0,0.703c-0.24,0-0.475,0-0.714,0     C372.743,250.42,372.743,250.192,372.743,249.953z" />
			<svg:path style="fill:#FFFFFF;" d="M365.993,261.147c0,0.237,0,0.465,0,0.703c-0.234,0-0.465,0-0.704,0c0-0.229,0-0.461,0-0.703     C365.517,261.147,365.748,261.147,365.993,261.147z" />
			<svg:path style="fill:#FFFFFF;" d="M367.478,242.475c0,0.242,0,0.47,0,0.709c-0.229,0-0.46,0-0.709,0     c0-0.216-0.002-0.436,0.003-0.656c0-0.018,0.04-0.05,0.063-0.051C367.047,242.474,367.26,242.475,367.478,242.475z" />
			<svg:path style="fill:#FFFFFF;" d="M358.517,243.191c-0.236,0-0.461,0-0.707,0c0-0.222-0.002-0.442,0.003-0.662     c0-0.018,0.04-0.051,0.062-0.052c0.213-0.004,0.426-0.002,0.642-0.002C358.517,242.722,358.517,242.956,358.517,243.191z" />
			<svg:path style="fill:#FFFFFF;" d="M365.289,238.748c0.239,0,0.467,0,0.702,0c0,0.238,0,0.469,0,0.709c-0.233,0-0.463,0-0.702,0     C365.289,239.225,365.289,238.99,365.289,238.748z" />
			<svg:path style="fill:#FFFFFF;" d="M362.289,240.245c0.247,0,0.475,0,0.71,0c0,0.236,0,0.468,0,0.716     c-0.22,0-0.439,0.002-0.659-0.003c-0.018,0-0.049-0.042-0.049-0.065C362.287,240.68,362.289,240.468,362.289,240.245z" />
			<svg:path style="fill:#FFFFFF;" d="M365.999,244.726c0,0.221,0.002,0.43-0.003,0.639c-0.001,0.026-0.042,0.072-0.066,0.073     c-0.212,0.006-0.425,0.003-0.643,0.003c0-0.244,0-0.476,0-0.715C365.521,244.726,365.752,244.726,365.999,244.726z" />
			<svg:path style="fill:#FFFFFF;" d="M357.809,258.91c0.246,0,0.475,0,0.711,0c0,0.236,0,0.468,0,0.714     c-0.219,0-0.436,0.002-0.652-0.003c-0.02,0-0.055-0.046-0.056-0.071C357.807,259.34,357.809,259.131,357.809,258.91z" />
			<svg:path style="fill:#FFFFFF;" d="M369.765,241.696c0-0.237,0-0.465,0-0.699c0.237,0,0.468,0,0.707,0c0,0.234,0,0.462,0,0.699     C370.237,241.696,370.006,241.696,369.765,241.696z" />
			<svg:path style="fill:#FFFFFF;" d="M374.243,247.664c0-0.233,0-0.461,0-0.708c0.22,0,0.439-0.002,0.658,0.003     c0.02,0,0.054,0.046,0.054,0.071c0.004,0.208,0.003,0.417,0.003,0.634C374.718,247.664,374.487,247.664,374.243,247.664z" />
			<svg:path style="fill:#FFFFFF;" d="M365.288,251.435c0.218,0,0.43-0.002,0.643,0.003c0.023,0.001,0.065,0.039,0.065,0.061     c0.005,0.213,0.003,0.425,0.003,0.646c-0.242,0-0.473,0-0.711,0C365.288,251.91,365.288,251.679,365.288,251.435z" />
			<svg:path style="fill:#FFFFFF;" d="M372.747,246.961c0.241,0,0.472,0,0.71,0c0,0.238,0,0.469,0,0.706c-0.237,0-0.469,0-0.71,0     C372.747,247.436,372.747,247.205,372.747,246.961z" />
			<svg:path style="fill:#FFFFFF;" d="M370.516,246.96c0.234,0,0.459,0,0.694,0c0,0.236,0,0.467,0,0.706c-0.228,0-0.456,0-0.694,0     C370.516,247.435,370.516,247.203,370.516,246.96z" />
			<svg:path style="fill:#FFFFFF;" d="M366.035,252.895c0-0.24,0-0.471,0-0.709c0.235,0,0.463,0,0.698,0c0,0.238,0,0.47,0,0.709     C366.502,252.895,366.274,252.895,366.035,252.895z" />
			<svg:path style="fill:#FFFFFF;" d="M371.259,257.409c0.238,0,0.463,0,0.696,0c0,0.239,0,0.473,0,0.715c-0.23,0-0.458,0-0.696,0     C371.259,257.889,371.259,257.655,371.259,257.409z" />
			<svg:path style="fill:#FFFFFF;" d="M362.252,261.856c-0.235,0-0.46,0-0.695,0c0-0.236,0-0.47,0-0.711c0.232,0,0.459,0,0.695,0     C362.252,261.382,362.252,261.613,362.252,261.856z" />
			<svg:path style="fill:#FFFFFF;" d="M353.29,253.646c-0.234,0-0.461,0-0.696,0c0-0.238,0-0.47,0-0.71c0.229,0,0.457,0,0.696,0     C353.29,253.166,353.29,253.4,353.29,253.646z" />
			<svg:path style="fill:#FFFFFF;" d="M352.592,244.688c0-0.242,0-0.471,0-0.71c0.233,0,0.463,0,0.701,0c0,0.235,0,0.469,0,0.71     C353.06,244.688,352.832,244.688,352.592,244.688z" />
			<svg:path style="fill:#FFFFFF;" d="M357.077,251.44c0.237,0,0.461,0,0.694,0c0,0.236,0,0.467,0,0.705c-0.229,0-0.457,0-0.694,0     C357.077,251.913,357.077,251.682,357.077,251.44z" />
			<svg:path style="fill:#FFFFFF;" d="M374.205,246.221c0,0.238,0,0.465,0,0.699c-0.238,0-0.469,0-0.709,0c0-0.231,0-0.461,0-0.699     C373.73,246.221,373.962,246.221,374.205,246.221z" />
			<svg:path style="fill:#FFFFFF;" d="M374.206,255.18c0,0.236,0,0.463,0,0.698c-0.238,0-0.469,0-0.709,0c0-0.229,0-0.46,0-0.698     C373.729,255.18,373.961,255.18,374.206,255.18z" />
			<svg:path style="fill:#FFFFFF;" d="M372.707,250.705c0,0.228,0,0.456,0,0.692c-0.233,0-0.464,0-0.705,0c0-0.227,0-0.454,0-0.692     C372.232,250.705,372.466,250.705,372.707,250.705z" />
			<svg:path style="fill:#FFFFFF;" d="M372.71,255.181c0,0.236,0,0.46,0,0.695c-0.237,0-0.471,0-0.712,0c0-0.233,0-0.46,0-0.695     C372.236,255.181,372.467,255.181,372.71,255.181z" />
			<svg:path style="fill:#FFFFFF;" d="M351.077,260.381c1.238,0,2.471,0,3.712,0c0,1.236,0,2.471,0,3.715c-1.235,0-2.47,0-3.712,0     C351.077,262.857,351.077,261.622,351.077,260.381z M351.826,261.113c0,0.754,0,1.496,0,2.24c0.745,0,1.481,0,2.218,0     c0-0.75,0-1.493,0-2.24C353.301,261.113,352.569,261.113,351.826,261.113z" />
			<svg:path style="fill:#FFFFFF;" d="M351.075,237.981c1.245,0,2.477,0,3.717,0c0,1.241,0,2.477,0,3.718c-1.24,0-2.476,0-3.717,0     C351.075,240.458,351.075,239.225,351.075,237.981z M351.826,238.719c0,0.755,0,1.498,0,2.24c0.745,0,1.481,0,2.217,0     c0-0.751,0-1.494,0-2.24C353.301,238.719,352.568,238.719,351.826,238.719z" />
			<svg:path style="fill:#FFFFFF;" d="M377.184,241.698c-1.239,0-2.475,0-3.716,0c0-1.24,0-2.473,0-3.715c1.238,0,2.473,0,3.716,0     C377.184,239.221,377.184,240.457,377.184,241.698z M374.217,240.96c0.747,0,1.484,0,2.223,0c0-0.75,0-1.493,0-2.238     c-0.745,0-1.481,0-2.223,0C374.217,239.469,374.217,240.21,374.217,240.96z" />
			<svg:path d="M357.065,253.66c0,0.503,0,0.998,0,1.503c-0.253,0-0.504,0-0.764,0c0-0.5,0-0.998,0-1.503     C356.553,253.66,356.801,253.66,357.065,253.66z" />
			<svg:path d="M372.72,260.385c0-0.251,0-0.499,0-0.753c0.254,0,0.503,0,0.759,0c0,0.248,0,0.496,0,0.753     C373.228,260.385,372.977,260.385,372.72,260.385z" />
			<svg:path d="M351.826,261.113c0.743,0,1.476,0,2.218,0c0,0.747,0,1.49,0,2.24c-0.737,0-1.473,0-2.218,0     C351.826,262.61,351.826,261.867,351.826,261.113z" />
			<svg:path d="M351.826,238.719c0.742,0,1.475,0,2.217,0c0,0.746,0,1.489,0,2.24c-0.736,0-1.472,0-2.217,0     C351.826,240.217,351.826,239.474,351.826,238.719z" />
			<svg:path d="M374.217,240.96c0-0.75,0-1.49,0-2.238c0.741,0,1.477,0,2.223,0c0,0.745,0,1.488,0,2.238     C375.701,240.96,374.965,240.96,374.217,240.96z" />
		</g></svg>