<?xml version='1.0' encoding='utf-8'?>
<svg xmlns:svg="http://www.w3.org/2000/svg" version="1.1" x="0px" y="0px" viewBox="0 0 499.606 474.095" style="enable-background:new 0 0 499.606 474.095;" xml:space="preserve"><g id="CODIGOS"><svg:rect y="325.797" style="fill:#FFFFFF;" width="32.598" height="70.866" />
	
		<svg:rect x="134.927" y="2.148" transform="matrix(-1.836970e-16 1 -1 -1.836970e-16 186.681 -115.7717)" style="fill:#FFFFFF;" width="32.598" height="66.613" />
	<svg:rect x="467.008" y="107.716" style="fill:#FFFFFF;" width="32.598" height="70.866" />
	<svg:rect x="212.566" y="451.417" style="fill-rule:evenodd;clip-rule:evenodd;" width="1.793" height="14.173" />
		<svg:rect x="215.623" y="451.417" style="fill-rule:evenodd;clip-rule:evenodd;" width="0.676" height="14.173" />
		<svg:rect x="218.533" y="451.417" style="fill-rule:evenodd;clip-rule:evenodd;" width="2.763" height="14.173" />
		<svg:rect x="223.53" y="451.417" style="fill-rule:evenodd;clip-rule:evenodd;" width="1.793" height="14.173" />
		<svg:rect x="226.498" y="451.417" style="fill-rule:evenodd;clip-rule:evenodd;" width="0.764" height="14.173" />
		<svg:rect x="230.466" y="451.417" style="fill-rule:evenodd;clip-rule:evenodd;" width="0.735" height="14.173" />
		<svg:rect x="234.493" y="451.417" style="fill-rule:evenodd;clip-rule:evenodd;" width="0.735" height="14.173" />
		<svg:rect x="238.46" y="451.417" style="fill-rule:evenodd;clip-rule:evenodd;" width="3.703" height="14.173" />
		<svg:rect x="243.457" y="451.417" style="fill-rule:evenodd;clip-rule:evenodd;" width="0.735" height="14.173" />
		<svg:rect x="245.397" y="451.417" style="fill-rule:evenodd;clip-rule:evenodd;" width="0.735" height="14.173" />
		<svg:rect x="249.423" y="451.417" style="fill-rule:evenodd;clip-rule:evenodd;" width="2.675" height="14.173" />
		<svg:rect x="253.362" y="451.417" style="fill-rule:evenodd;clip-rule:evenodd;" width="1.734" height="14.173" />
		<svg:rect x="256.36" y="451.417" style="fill-rule:evenodd;clip-rule:evenodd;" width="1.705" height="14.173" />
		<svg:rect x="259.328" y="451.417" style="fill-rule:evenodd;clip-rule:evenodd;" width="1.734" height="14.173" />
		<svg:rect x="263.296" y="451.417" style="fill-rule:evenodd;clip-rule:evenodd;" width="1.793" height="14.173" />
		<svg:rect x="267.323" y="451.417" style="fill-rule:evenodd;clip-rule:evenodd;" width="1.705" height="14.173" />
		<svg:rect x="271.291" y="451.417" style="fill-rule:evenodd;clip-rule:evenodd;" width="1.705" height="14.173" />
		<svg:rect x="274.259" y="451.417" style="fill-rule:evenodd;clip-rule:evenodd;" width="1.734" height="14.173" />
		<svg:rect x="278.227" y="451.417" style="fill-rule:evenodd;clip-rule:evenodd;" width="0.735" height="14.173" />
		<svg:rect x="280.226" y="451.417" style="fill-rule:evenodd;clip-rule:evenodd;" width="1.734" height="14.173" />
		<svg:rect x="285.222" y="451.417" style="fill-rule:evenodd;clip-rule:evenodd;" width="0.764" height="14.173" />
		<svg:rect x="289.19" y="451.417" style="fill-rule:evenodd;clip-rule:evenodd;" width="1.705" height="14.173" />
		<svg:rect x="294.187" y="451.417" style="fill-rule:evenodd;clip-rule:evenodd;" width="2.675" height="14.173" />
		<svg:rect x="298.154" y="451.417" style="fill-rule:evenodd;clip-rule:evenodd;" width="0.735" height="14.173" />
		<svg:rect x="300.153" y="451.417" style="fill-rule:evenodd;clip-rule:evenodd;" width="1.705" height="14.173" />
	<svg:rect x="429.783" y="253.202" width="0.285" height="0.739" />
				<svg:rect x="429.783" y="257.036" width="0.285" height="0.739" />
				<svg:rect x="429.783" y="249.372" width="0.285" height="0.739" />
				<svg:rect x="471.26" y="173.078" style="fill-rule:evenodd;clip-rule:evenodd;fill:#16162F;" width="28.346" height="1.252" />
		<svg:rect x="471.26" y="171.723" style="fill-rule:evenodd;clip-rule:evenodd;fill:#16162F;" width="28.346" height="0.472" />
		<svg:rect x="471.26" y="168.234" style="fill-rule:evenodd;clip-rule:evenodd;fill:#16162F;" width="28.346" height="1.93" />
		<svg:rect x="471.26" y="165.421" style="fill-rule:evenodd;clip-rule:evenodd;fill:#16162F;" width="28.346" height="1.252" />
		<svg:rect x="471.26" y="164.067" style="fill-rule:evenodd;clip-rule:evenodd;fill:#16162F;" width="28.346" height="0.534" />
		<svg:rect x="471.26" y="161.316" style="fill-rule:evenodd;clip-rule:evenodd;fill:#16162F;" width="28.346" height="0.513" />
		<svg:rect x="471.26" y="158.504" style="fill-rule:evenodd;clip-rule:evenodd;fill:#16162F;" width="28.346" height="0.513" />
		<svg:rect x="471.26" y="153.659" style="fill-rule:evenodd;clip-rule:evenodd;fill:#16162F;" width="28.346" height="2.586" />
		<svg:rect x="471.26" y="152.243" style="fill-rule:evenodd;clip-rule:evenodd;fill:#16162F;" width="28.346" height="0.513" />
		<svg:rect x="471.26" y="150.888" style="fill-rule:evenodd;clip-rule:evenodd;fill:#16162F;" width="28.346" height="0.513" />
		<svg:rect x="471.26" y="146.721" style="fill-rule:evenodd;clip-rule:evenodd;fill:#16162F;" width="28.346" height="1.868" />
		<svg:rect x="471.26" y="144.627" style="fill-rule:evenodd;clip-rule:evenodd;fill:#16162F;" width="28.346" height="1.211" />
		<svg:rect x="471.26" y="142.554" style="fill-rule:evenodd;clip-rule:evenodd;fill:#16162F;" width="28.346" height="1.191" />
		<svg:rect x="471.26" y="140.46" style="fill-rule:evenodd;clip-rule:evenodd;fill:#16162F;" width="28.346" height="1.211" />
		<svg:rect x="471.26" y="137.648" style="fill-rule:evenodd;clip-rule:evenodd;fill:#16162F;" width="28.346" height="1.252" />
		<svg:rect x="471.26" y="134.897" style="fill-rule:evenodd;clip-rule:evenodd;fill:#16162F;" width="28.346" height="1.191" />
		<svg:rect x="471.26" y="132.126" style="fill-rule:evenodd;clip-rule:evenodd;fill:#16162F;" width="28.346" height="1.191" />
		<svg:rect x="471.26" y="130.032" style="fill-rule:evenodd;clip-rule:evenodd;fill:#16162F;" width="28.346" height="1.211" />
		<svg:rect x="471.26" y="127.959" style="fill-rule:evenodd;clip-rule:evenodd;fill:#16162F;" width="28.346" height="0.513" />
		<svg:rect x="471.26" y="125.865" style="fill-rule:evenodd;clip-rule:evenodd;fill:#16162F;" width="28.346" height="1.211" />
		<svg:rect x="471.26" y="123.053" style="fill-rule:evenodd;clip-rule:evenodd;fill:#16162F;" width="28.346" height="0.534" />
		<svg:rect x="471.26" y="119.625" style="fill-rule:evenodd;clip-rule:evenodd;fill:#16162F;" width="28.346" height="1.191" />
		<svg:rect x="471.26" y="115.458" style="fill-rule:evenodd;clip-rule:evenodd;fill:#16162F;" width="28.346" height="1.868" />
		<svg:rect x="471.26" y="114.041" style="fill-rule:evenodd;clip-rule:evenodd;fill:#16162F;" width="28.346" height="0.513" />
		<svg:rect x="471.26" y="111.968" style="fill-rule:evenodd;clip-rule:evenodd;fill:#16162F;" width="28.346" height="1.191" />
	<svg:rect y="391.159" style="fill-rule:evenodd;clip-rule:evenodd;fill:#16162F;" width="28.346" height="1.252" />
		<svg:rect y="389.804" style="fill-rule:evenodd;clip-rule:evenodd;fill:#16162F;" width="28.346" height="0.472" />
		<svg:rect y="386.314" style="fill-rule:evenodd;clip-rule:evenodd;fill:#16162F;" width="28.346" height="1.93" />
		<svg:rect y="383.502" style="fill-rule:evenodd;clip-rule:evenodd;fill:#16162F;" width="28.346" height="1.252" />
		<svg:rect y="382.147" style="fill-rule:evenodd;clip-rule:evenodd;fill:#16162F;" width="28.346" height="0.534" />
		<svg:rect y="379.397" style="fill-rule:evenodd;clip-rule:evenodd;fill:#16162F;" width="28.346" height="0.513" />
		<svg:rect y="376.584" style="fill-rule:evenodd;clip-rule:evenodd;fill:#16162F;" width="28.346" height="0.513" />
		<svg:rect y="371.74" style="fill-rule:evenodd;clip-rule:evenodd;fill:#16162F;" width="28.346" height="2.586" />
		<svg:rect y="370.323" style="fill-rule:evenodd;clip-rule:evenodd;fill:#16162F;" width="28.346" height="0.513" />
		<svg:rect y="368.969" style="fill-rule:evenodd;clip-rule:evenodd;fill:#16162F;" width="28.346" height="0.513" />
		<svg:rect y="364.802" style="fill-rule:evenodd;clip-rule:evenodd;fill:#16162F;" width="28.346" height="1.868" />
		<svg:rect y="362.708" style="fill-rule:evenodd;clip-rule:evenodd;fill:#16162F;" width="28.346" height="1.211" />
		<svg:rect y="360.635" style="fill-rule:evenodd;clip-rule:evenodd;fill:#16162F;" width="28.346" height="1.191" />
		<svg:rect y="358.541" style="fill-rule:evenodd;clip-rule:evenodd;fill:#16162F;" width="28.346" height="1.211" />
		<svg:rect y="355.728" style="fill-rule:evenodd;clip-rule:evenodd;fill:#16162F;" width="28.346" height="1.252" />
		<svg:rect y="352.978" style="fill-rule:evenodd;clip-rule:evenodd;fill:#16162F;" width="28.346" height="1.191" />
		<svg:rect y="350.207" style="fill-rule:evenodd;clip-rule:evenodd;fill:#16162F;" width="28.346" height="1.191" />
		<svg:rect y="348.113" style="fill-rule:evenodd;clip-rule:evenodd;fill:#16162F;" width="28.346" height="1.211" />
		<svg:rect y="346.04" style="fill-rule:evenodd;clip-rule:evenodd;fill:#16162F;" width="28.346" height="0.513" />
		<svg:rect y="343.946" style="fill-rule:evenodd;clip-rule:evenodd;fill:#16162F;" width="28.346" height="1.211" />
		<svg:rect y="341.133" style="fill-rule:evenodd;clip-rule:evenodd;fill:#16162F;" width="28.346" height="0.534" />
		<svg:rect y="337.705" style="fill-rule:evenodd;clip-rule:evenodd;fill:#16162F;" width="28.346" height="1.191" />
		<svg:rect y="333.538" style="fill-rule:evenodd;clip-rule:evenodd;fill:#16162F;" width="28.346" height="1.868" />
		<svg:rect y="332.122" style="fill-rule:evenodd;clip-rule:evenodd;fill:#16162F;" width="28.346" height="0.513" />
		<svg:rect y="330.049" style="fill-rule:evenodd;clip-rule:evenodd;fill:#16162F;" width="28.346" height="1.191" />
	<svg:rect x="348.552" y="235.461" style="fill:#FFFFFF;" width="31.181" height="31.181" />
		</g></svg>